<?xml version="1.0" encoding="UTF-8" standalone="no"?>
<!-- Created with Inkscape (http://www.inkscape.org/) -->

<svg
   width="210mm"
   height="297mm"
   viewBox="0 0 210 297"
   version="1.1"
   id="svg1"
   xml:space="preserve"
   inkscape:export-filename="propuesta 8.2.png"
   inkscape:export-xdpi="83.036369"
   inkscape:export-ydpi="83.036369"
   inkscape:version="1.3.2 (091e20e, 2023-11-25, custom)"
   sodipodi:docname="propuesta 8.2.svg"
   xmlns:inkscape="http://www.inkscape.org/namespaces/inkscape"
   xmlns:sodipodi="http://sodipodi.sourceforge.net/DTD/sodipodi-0.dtd"
   xmlns="http://www.w3.org/2000/svg"
   xmlns:svg="http://www.w3.org/2000/svg"><sodipodi:namedview
     id="namedview1"
     pagecolor="#ffffff"
     bordercolor="#000000"
     borderopacity="0.25"
     inkscape:showpageshadow="2"
     inkscape:pageopacity="0.0"
     inkscape:pagecheckerboard="0"
     inkscape:deskcolor="#d1d1d1"
     inkscape:document-units="mm"
     showgrid="false"
     inkscape:zoom="0.66268444"
     inkscape:cx="313.12037"
     inkscape:cy="504.01062"
     inkscape:window-width="1366"
     inkscape:window-height="705"
     inkscape:window-x="-8"
     inkscape:window-y="-8"
     inkscape:window-maximized="1"
     inkscape:current-layer="layer1" /><defs
     id="defs1"><rect
       x="519.10076"
       y="606.62356"
       width="9.0540831"
       height="52.815485"
       id="rect3" /><rect
       x="323.31128"
       y="409.74103"
       width="449.22128"
       height="259.28924"
       id="rect2" /><rect
       x="540.9862"
       y="491.90264"
       width="113.63911"
       height="91.764917"
       id="rect1" /></defs><g
     inkscape:label="Capa 1"
     inkscape:groupmode="layer"
     id="layer1"><text
       xml:space="preserve"
       transform="scale(0.26458333)"
       id="text1"
       style="font-style:normal;font-variant:normal;font-weight:normal;font-stretch:normal;font-size:32px;font-family:Calibri;-inkscape-font-specification:Calibri;white-space:pre;shape-inside:url(#rect1);opacity:1;fill:#134e70;fill-opacity:1;stroke:#134e70;stroke-width:0;stroke-linecap:round;stroke-miterlimit:0;stroke-dasharray:none;stroke-opacity:1" /><g
       id="g3"><path
         id="path1"
         style="fill:#134e70;fill-opacity:1;stroke:#134e70;stroke-width:0;stroke-dasharray:none;stroke-opacity:1"
         d="m 47.617807,114.32037 c -1.46315,0 -5.19761,0.73293 -7.178373,1.4087 -11.283109,3.84935 -18.710501,15.05303 -17.735869,26.7534 0.106193,1.27475 0.30928,2.26498 0.464571,2.26498 0.151735,0 0.987209,-0.77652 1.856735,-1.72547 0.869522,-0.94896 2.121331,-2.04176 2.781742,-2.4288 1.277632,-0.74869 3.504695,-1.24792 3.504696,-0.78548 0,0.14737 0.196869,0.48577 0.437699,0.75189 0.722725,0.79862 2.638548,0.63125 5.274613,-0.45992 1.253374,-0.51883 2.326992,-0.89503 2.385901,-0.83612 0.05891,0.0589 -0.131812,0.32336 -0.423746,0.58756 -0.320362,0.28986 -0.547534,0.85734 -0.573092,1.43144 l -0.04237,0.95136 -0.106456,-0.85989 c -0.07739,-0.62367 -0.242017,-0.8599 -0.598929,-0.8599 -0.812654,0 -2.085948,1.26908 -2.272728,2.26498 -0.235204,1.25374 0.07856,2.7621 0.57464,2.7621 0.801357,0 2.008251,-0.84948 2.345076,-1.65054 l 0.345716,-0.82269 0.184486,0.83974 c 0.124608,0.56727 0.340225,0.83974 0.665075,0.83974 0.588872,0 2.054483,-1.61982 2.280483,-2.52026 0.22737,-0.90584 -0.0879,-2.39944 -0.618569,-2.93005 -0.410663,-0.41066 -0.396669,-0.42684 0.208769,-0.24133 2.30434,0.70601 3.53749,1.82261 3.84938,3.48506 0.24077,1.28339 -0.0187,4.08366 -0.82579,8.90747 -0.86564,5.17352 -1.25959,6.51302 -2.17299,7.38818 -0.79368,0.76032 -4.922773,2.59584 -7.028515,3.12435 -1.176856,0.29539 -1.309534,0.27699 -1.796272,-0.24546 -0.910707,-0.9775 -3.150712,-0.50279 -3.150712,0.66766 0,0.25856 -0.434113,0.35605 -1.5875,0.35605 -1.51691,0 -1.5875,0.0294 -1.5875,0.66146 0,0.5291 0.132299,0.66145 0.661459,0.66146 0.363789,0 0.661458,-0.12598 0.661458,-0.28009 0,-0.15412 0.102181,-0.2171 0.226859,-0.14005 0.124683,0.0771 9.322531,0.15132 20.439063,0.16537 l 20.2122,0.0253 0.0847,-0.54674 c 0.0934,-0.60429 -0.0341,-0.64199 -1.87068,-0.55655 -0.86688,0.0403 -1.25677,-0.0454 -1.25677,-0.27595 0,-1.18654 -1.97289,-1.71016 -2.91042,-0.77257 -0.74246,0.7424 -1.61271,0.6633 -3.93516,-0.35811 -1.10973,-0.48805 -2.59236,-1.09666 -3.29438,-1.35238 -0.89063,-0.32442 -1.50565,-0.7816 -2.03553,-1.51308 -0.75061,-1.03613 -0.92548,-1.65019 -1.86759,-6.56601 l -0.48162,-2.51354 0.15296,1.91823 c 0.10668,1.33892 0.0623,1.91823 -0.14625,1.91823 -0.17873,0 -0.29868,-0.48983 -0.29868,-1.21905 0,-0.88692 -0.0931,-1.18309 -0.34159,-1.08779 -0.27155,0.1042 -0.28602,-0.10675 -0.0718,-1.02991 0.14817,-0.63859 0.36144,-1.16117 0.47388,-1.16117 0.11243,0 0.20412,-0.47255 0.20412,-1.05007 0,-0.79399 -0.0909,-1.015 -0.37259,-0.90692 -0.3151,0.12095 -0.31161,-0.0329 0.0207,-0.99787 0.21609,-0.62722 0.32967,-1.45484 0.2527,-1.83968 -0.39978,-1.9988 1.23027,-4.17666 3.54087,-4.73098 0.7422,-0.17805 1.42237,-0.2509 1.51153,-0.16175 0.0892,0.0892 -0.0757,0.16227 -0.36639,0.16227 -1.349,0 -1.69263,3.07127 -0.51624,4.61367 0.90452,1.18582 1.37678,1.18962 1.93683,0.015 l 0.44235,-0.92759 0.33848,0.80512 c 0.34215,0.81372 1.97019,1.75731 2.48409,1.4397 0.41323,-0.25539 0.29653,-2.98703 -0.1571,-3.67936 -0.46359,-0.70753 -1.77467,-1.34035 -2.33319,-1.12603 -0.20419,0.0784 -0.62236,-0.14637 -0.92914,-0.49919 -0.79048,-0.90906 -0.22978,-0.84512 2.49959,0.28474 1.23033,0.50925 2.58528,0.92604 3.01067,0.92604 1.69177,0 2.65915,-0.85732 2.22984,-1.97611 -0.14866,-0.38732 -0.38592,-0.43548 -1.45211,-0.29404 -1.10404,0.14646 -1.53218,0.0472 -3.20188,-0.74466 -2.44708,-1.16043 -4.14178,-1.58595 -5.64565,-1.41645 -0.98927,0.11151 -1.13795,0.0729 -0.88573,-0.23099 0.24581,-0.29618 0.1571,-0.36483 -0.47026,-0.36483 -0.42527,0 -0.93367,0.14882 -1.12964,0.33072 -0.28651,0.26588 -0.31754,0.26246 -0.15865,-0.0176 0.11867,-0.20918 0.007,-0.48779 -0.27905,-0.69711 -0.43242,-0.31624 -0.33054,-0.42236 1.09812,-1.1467 1.48989,-0.75539 2.50063,-1.86433 2.50063,-2.7435 0,-0.19845 0.27846,-0.35605 0.6289,-0.35605 h 0.62838 l -0.62838,0.58239 c -0.68698,0.63665 -0.81728,1.13489 -0.29817,1.14102 0.1819,0.002 0.0331,0.15404 -0.33073,0.33744 -0.95657,0.48222 -0.9537,1.25826 0.007,2.17868 0.69059,0.66133 1.02799,0.78436 2.10943,0.76843 0.70797,-0.0104 1.5039,-0.18902 1.76837,-0.39687 0.43768,-0.344 0.44886,-0.33688 0.12505,0.0765 -0.51243,0.65415 -0.29531,1.00449 0.894,1.44332 2.63883,0.97363 4.11668,0.91733 5.30821,-0.20206 l 0.63562,-0.59737 v 0.57567 c 0,0.45998 0.15587,0.57516 0.77669,0.57516 0.42709,0 1.10575,-0.12544 1.50844,-0.27854 0.70538,-0.26821 0.71608,-0.25985 0.28215,0.21963 -0.24769,0.2737 -0.45061,0.63959 -0.45061,0.81339 0,0.21531 -0.20673,0.18049 -0.64854,-0.10904 -0.86704,-0.5681 -1.73271,-0.28414 -1.73271,0.56844 0,0.88103 1.04963,1.37685 1.99936,0.94413 0.372,-0.16944 0.60975,-0.41593 0.52865,-0.54726 -0.0812,-0.13133 0.10108,-0.17343 0.40462,-0.0941 0.37984,0.0993 0.45105,0.20644 0.22893,0.34365 -0.24114,0.14903 -0.25196,0.40168 -0.0434,0.99994 l 0.27905,0.80099 -0.8387,-0.48266 c -0.46126,-0.26543 -1.34473,-0.56417 -1.96319,-0.66353 -0.98116,-0.15763 -1.12413,-0.11831 -1.12138,0.30593 0.006,0.95838 0.76579,3.3279 1.23662,3.85764 0.66394,0.74691 2.41933,1.51078 3.48764,1.51774 0.99955,0.006 0.99843,0.068 0.0429,-2.34921 l -0.56482,-1.42834 0.66611,0.43615 c 0.95996,0.62903 3.85971,0.52462 3.85971,-0.13901 0,-0.4482 -1.65487,-2.32068 -2.20555,-2.49545 -0.49561,-0.1573 -0.47681,-0.20116 0.23874,-0.56534 0.96738,-0.49225 2.23139,-1.65512 2.23139,-2.05259 0,-0.42041 -1.71681,-1.19011 -2.65462,-1.19011 -0.89815,0 -0.91399,-0.0375 -0.42168,-1.00562 0.19985,-0.39293 0.4512,-0.99755 0.55811,-1.34359 0.19248,-0.62298 0.17839,-0.62785 -1.42162,-0.51211 l -1.61592,0.11679 0.49558,-0.54571 c 0.64179,-0.70661 1.0914,-1.58816 1.0914,-2.13992 0,-0.36801 -0.24881,-0.42365 -1.56269,-0.3483 -0.85964,0.0493 -1.50758,6.1e-4 -1.43971,-0.10852 0.0679,-0.10914 0.48127,-0.19844 0.91881,-0.19844 1.12009,0 1.80546,-0.43614 2.21485,-1.40973 0.44643,-1.06167 0.12418,-1.50068 -1.10174,-1.50068 -0.97048,0 -2.20452,0.95613 -2.20452,1.7079 0,0.27225 -0.24315,0.40496 -0.7276,0.39791 l -0.7276,-0.0103 0.69298,-0.37672 c 0.38105,-0.20707 0.88706,-0.78593 1.12448,-1.28623 0.51733,-1.09017 0.58144,-3.06694 0.10076,-3.1042 -1.0652,-0.0826 -2.51522,0.10861 -2.9471,0.38861 -0.36401,0.23595 -0.83529,0.25547 -1.73426,0.0713 -1.56012,-0.31958 -2.52922,-0.0773 -3.47524,0.86868 l -0.74621,0.74621 0.14676,-0.73484 c 0.11369,-0.56846 0.0361,-0.76422 -0.34365,-0.86197 -0.3327,-0.0856 -0.25371,-0.1363 0.24495,-0.15709 0.9299,-0.0388 2.3232,-0.61479 2.91196,-1.20355 0.42697,-0.42696 0.45269,-0.41403 0.45269,0.2279 0,0.59691 0.10982,0.68058 0.89659,0.68058 1.36092,0 2.08889,-0.73393 2.12028,-2.13838 0.0257,-1.1479 0.0115,-1.1673 -0.76791,-1.0759 -0.43656,0.0512 -0.99987,0.20268 -1.2516,0.33693 -0.39961,0.21312 -0.43739,0.14259 -0.29766,-0.55604 l 0.1602,-0.79995 -1.68672,0.001 c -1.98986,0.001 -3.14031,0.57609 -3.97185,1.98541 -0.29973,0.50799 -0.59274,0.92398 -0.65113,0.92398 -0.29912,0 -0.0104,-0.56581 0.85886,-1.68156 0.73006,-0.93703 0.99617,-1.56033 1.09193,-2.55695 0.11981,-1.24687 0.0928,-1.31764 -0.5023,-1.31671 -0.95678,0.002 -2.29769,0.94369 -2.72076,1.91151 -0.22824,0.52213 -0.38696,0.68183 -0.39998,0.40256 -0.0119,-0.25466 -0.14374,-0.46302 -0.293,-0.46302 -0.15145,0 -0.0802,-0.36973 0.16123,-0.83664 0.35754,-0.69132 0.38042,-1.0114 0.1318,-1.8412 -0.42792,-1.42823 -0.77472,-1.51213 -1.76785,-0.4284 l -0.86713,0.9462 -0.41083,-0.62684 c -0.40408,-0.61668 -1.82738,-1.17739 -2.99516,-1.18029 -0.77902,-0.002 -0.78621,0.77729 -0.0196,2.14096 0.62321,1.10882 2.37568,2.01533 3.38532,1.75131 0.36609,-0.0957 0.53692,-0.0122 0.53692,0.26252 0,0.26935 0.17115,0.35844 0.51625,0.2682 0.49288,-0.12889 0.4906,-0.0999 -0.0532,0.63562 -0.50762,0.68657 -0.5377,0.89099 -0.27441,1.8774 0.23545,0.88207 0.22123,1.21289 -0.0698,1.62833 -0.33294,0.47532 -0.35175,0.43847 -0.21342,-0.41393 0.24152,-1.48867 -0.64939,-3.18339 -2.13062,-4.05143 -1.70458,-0.99896 -2.12107,-0.77613 -1.93425,1.03456 0.0806,0.78085 0.33784,1.79034 0.57206,2.24327 0.35542,0.6873 0.36392,0.82373 0.0506,0.82373 -0.48772,0 -0.6966,0.5776 -0.6966,1.92701 0,0.86786 0.17283,1.26815 0.84594,1.96267 1.16573,1.20269 1.48437,1.11811 1.69241,-0.4501 0.10769,-0.81181 0.30714,-1.32292 0.51624,-1.32292 0.18741,0 0.401,-0.14883 0.47439,-0.33073 0.0797,-0.19756 0.14203,-0.1443 0.15451,0.1323 0.0153,0.34042 0.24834,0.46443 0.88057,0.4687 l 0.8599,0.006 -1.10691,0.50281 c -1.30418,0.59213 -1.9358,1.63854 -1.9358,3.20756 0,1.16454 0.0564,1.18878 1.45521,0.62167 0.29104,-0.118 0.0898,0.17184 -0.447,0.6444 -1.0739,0.9454 -1.65249,2.31001 -1.4795,3.48868 0.0663,0.45169 -0.0206,0.81418 -0.21239,0.8878 -0.57329,0.22001 -0.59053,-2.18728 -0.0233,-3.2458 0.86359,-1.61124 0.0661,-3.70721 -1.56683,-4.11706 l -0.63665,-0.15968 v -6.874 -6.874 z m 0.0977,0.71727 v 6.24044 c 0,3.43211 -0.0973,6.30063 -0.21652,6.37429 -0.11919,0.0737 -0.16564,-0.2165 -0.10284,-0.6444 0.18706,-1.2745 -0.17001,-2.63343 -0.69195,-2.63343 -0.5395,0 -1.89994,1.98203 -1.89755,2.76468 7.9e-4,0.29829 0.17494,0.87478 0.38653,1.28055 0.27402,0.52531 0.31371,0.92532 0.13746,1.38906 -0.13619,0.35819 -0.29596,0.65112 -0.3545,0.65112 -0.36413,0 -0.80703,-0.98077 -0.73845,-1.63452 0.0447,-0.42596 -0.1081,-1.06328 -0.33952,-1.41645 -0.48418,-0.73893 -1.89583,-1.54496 -2.38021,-1.35909 -0.21196,0.0813 -0.328667,-0.12692 -0.328667,-0.58602 v -0.71261 l 0.605127,0.60513 c 0.74682,0.7468 1.05722,0.76085 1.43041,0.0636 0.36514,-0.68226 -0.0553,-2.09044 -0.83458,-2.7957 -0.52957,-0.4793 -0.55249,-0.4788 -0.91622,0.0186 -0.205137,0.28054 -0.373102,0.72545 -0.373102,0.98909 0,0.35588 -0.246169,0.20646 -0.956533,-0.57981 -1.002786,-1.11001 -1.953609,-1.39971 -1.954403,-0.59583 -2.38e-4,0.26689 -0.196358,0.0729 -0.46302,-0.45785 -0.506342,-1.00792 -1.963196,-2.12184 -2.775025,-2.12184 -0.458382,0 -0.504489,0.15896 -0.423746,1.45831 0.07566,1.21754 0.02487,1.43016 -0.30644,1.28571 -0.218281,-0.0952 -0.741466,-0.23206 -1.162719,-0.30386 l -0.766363,-0.13022 0.139527,1.23713 c 0.07668,0.68035 0.362199,1.49795 0.634069,1.81695 0.484225,0.56815 0.483838,0.57187 -0.01035,0.18758 -0.349459,-0.27189 -1.09798,-0.38403 -2.438611,-0.36535 l -1.934239,0.0269 0.789616,-0.99632 c 3.622321,-4.57351 10.593301,-8.31159 16.589169,-8.89506 z m -1.7048,1.3994 c -0.91492,0 -1.26696,0.13045 -1.5875,0.58807 -0.5393,0.76993 -0.54862,1.63766 -0.015,1.43299 0.50887,-0.19526 0.50316,-0.0485 -0.0186,0.47336 -0.37798,0.37797 -0.35932,0.41599 0.20567,0.41599 0.84023,0 1.67466,-0.62525 2.17609,-1.63039 0.59579,-1.19426 0.54455,-1.28002 -0.76068,-1.28002 z m 3.884,0.0238 c 0.12734,-0.009 0.30067,0.0159 0.52038,0.0744 0.94638,0.25188 1.21764,0.50767 1.65933,1.56476 0.22588,0.54059 0.3794,0.9826 0.34106,0.98237 -0.41541,-0.002 -2.00137,-1.08574 -2.41432,-1.64899 -0.4543,-0.61965 -0.48849,-0.94643 -0.10645,-0.97255 z m -7.61763,0.29869 c -0.074,-0.009 -0.14422,-0.003 -0.20877,0.0217 -0.49998,0.19186 -0.56331,0.77988 -0.16433,1.52549 0.36814,0.68787 1.5782,0.69699 1.5782,0.0119 0,-0.66445 -0.68736,-1.49468 -1.2051,-1.55907 z m 12.25403,0.0951 c 0.21839,-9e-5 0.32815,0.26258 0.32815,0.78755 0,0.32342 -0.21837,0.85796 -0.48524,1.18752 -0.43813,0.54106 -0.50233,0.55472 -0.66146,0.14005 -0.29815,-0.77695 -0.19759,-1.3729 0.30851,-1.8309 0.20922,-0.18934 0.37901,-0.28416 0.51004,-0.28422 z m -8.88886,0.70642 c 0.0969,0.0164 0.19892,0.0708 0.29714,0.16898 0.21621,0.2162 0.17069,0.29456 -0.17105,0.29456 -0.25597,0 -0.39688,0.11052 -0.31316,0.24598 0.0837,0.13546 0.0562,0.30605 -0.0615,0.37878 -0.11768,0.0727 -0.23122,-0.0955 -0.25218,-0.37362 -0.0356,-0.47191 0.20996,-0.76387 0.50075,-0.71468 z M 39.004409,117.76 c -0.48252,0 -0.54932,0.1601 -0.54932,1.31362 0,1.09571 0.138234,1.47072 0.83199,2.26084 0.45747,0.52102 1.012921,0.91222 1.234549,0.8692 0.529272,-0.10272 0.940869,-1.37607 0.723987,-2.24017 C 41.018902,119.06021 39.696236,117.76 39.004409,117.76 Z m 19.496998,0.55759 -0.216,0.95757 c -0.11877,0.52658 -0.43945,1.25675 -0.71262,1.62263 -0.75762,1.01473 -1.12603,1.00716 -1.12603,-0.0227 0,-0.99122 0.31341,-1.48173 1.35806,-2.127 z m -11.74708,0.81287 c -0.29414,-0.0367 -0.76311,0.31181 -1.54099,1.02888 -1.25759,1.15917 -1.62037,2.12118 -1.34772,3.57446 0.19195,1.02318 0.76694,1.19339 1.21336,0.35915 0.24278,-0.45363 0.36058,-0.48937 0.69556,-0.21136 0.33595,0.27881 0.48441,0.22695 0.88832,-0.30851 0.61697,-0.81792 0.74329,-1.50171 0.58394,-3.16001 -0.0792,-0.82417 -0.1984,-1.24586 -0.49247,-1.28261 z m -7.744235,0.003 c 0.06406,-0.0185 0.181679,0.0695 0.36122,0.30644 0.203666,0.2688 0.298852,0.6753 0.211357,0.90331 -0.105103,0.27388 -0.05394,0.34931 0.150895,0.22272 0.192572,-0.11901 0.412797,0.0789 0.581358,0.52245 0.414142,1.08925 0.117346,1.06102 -0.645438,-0.0615 -0.559816,-0.82383 -0.85155,-1.83781 -0.659392,-1.89342 z m 2.902145,0.21446 c -0.38681,0 -0.35721,1.93516 0.0357,2.32802 0.44578,0.44577 1.44777,0.39561 1.63091,-0.0816 0.33168,-0.86431 -0.69368,-2.24637 -1.66656,-2.24637 z m 7.93441,0.39687 0.78858,0.92604 c 0.50826,0.59653 0.72866,0.73775 0.61908,0.39688 -0.0992,-0.30866 0.1206,-0.14966 0.5271,0.38189 0.42122,0.55088 0.68918,1.23106 0.678,1.71979 -0.0358,1.55739 -0.29987,1.71956 -1.17203,0.71985 -1.17052,-1.34161 -1.43629,-1.91141 -1.43867,-3.08611 z m -3.38016,0.23255 c 0.0278,-0.0278 0.0647,0.009 0.10697,0.11472 0.0764,0.19099 0.0669,0.41903 -0.0212,0.50694 -0.0879,0.0879 -0.14997,-0.0684 -0.13849,-0.34726 0.006,-0.15411 0.0249,-0.24658 0.0527,-0.2744 z m -0.97513,0.69349 c 0.0529,0 -0.0394,0.29767 -0.20516,0.66146 -0.16576,0.3638 -0.40417,0.66146 -0.52968,0.66146 -0.12552,0 -0.0332,-0.29766 0.20515,-0.66146 0.23837,-0.36379 0.47678,-0.66146 0.52969,-0.66146 z m -9.549809,0.1323 0.595312,0.50384 c 0.327422,0.27721 0.595313,0.54511 0.595313,0.59531 0,0.21173 -0.21312,0.0556 -0.686782,-0.50384 z m 18.813319,0.007 c 0.0809,0.0181 0.14199,0.10597 0.20464,0.26923 0.18609,0.48494 -0.42781,1.82166 -0.70797,1.54151 -0.31625,-0.31624 -0.20537,-1.34016 0.17984,-1.65985 0.14156,-0.11748 0.24256,-0.16904 0.32349,-0.15089 z m -12.19667,0.21186 c 0.0691,0.017 0.15706,0.1308 0.22169,0.29921 0.17891,0.46621 0.0263,0.54821 -0.23461,0.12609 -0.0959,-0.1552 -0.11741,-0.33889 -0.0481,-0.40825 0.0173,-0.0173 0.0379,-0.0227 0.061,-0.017 z m -7.346839,0.21446 c 0.118899,0.0385 0.345993,0.25861 0.77928,0.69195 0.49992,0.4999 1.023983,1.21199 1.164789,1.58233 0.36381,0.95687 0.163248,0.98693 -0.385506,0.0579 -0.256754,-0.43464 -0.57644,-0.72264 -0.710552,-0.63976 -0.135186,0.0835 -0.166354,-0.0516 -0.06976,-0.30334 0.118205,-0.30803 0.07462,-0.3923 -0.135393,-0.26251 -0.170252,0.10522 -0.309541,0.0583 -0.309541,-0.10439 0,-0.16269 -0.10418,-0.23166 -0.231511,-0.15296 -0.127331,0.0787 -0.23151,-0.13319 -0.23151,-0.47129 0,-0.29308 0.01082,-0.43639 0.129706,-0.39791 z m 26.024249,0.094 c 0.71304,-0.001 1.29606,0.0585 1.29553,0.13229 -0.003,0.38138 -1.11268,1.87819 -1.65726,2.23501 -0.34382,0.22527 -1.17912,0.48545 -1.85622,0.57825 l -1.23093,0.16899 0.24494,-0.85421 c 0.29735,-1.03674 0.73262,-1.59681 1.24127,-1.59681 0.20906,0 0.3075,-0.11763 0.21859,-0.26148 -0.096,-0.15536 0.0228,-0.19082 0.29249,-0.0873 0.251,0.0963 0.38692,0.0653 0.30438,-0.0692 -0.083,-0.13525 0.42674,-0.24438 1.14721,-0.24546 z m -15.24868,0.25631 c 0.016,0.006 0.0333,0.031 0.0517,0.0765 0.0734,0.1819 0.0734,0.47957 0,0.66146 -0.0734,0.18189 -0.13333,0.0331 -0.13333,-0.33073 0,-0.27284 0.0338,-0.42503 0.0816,-0.40721 z m 9.75806,0.27647 c 0.0448,0.0314 0.10985,0.15355 0.19534,0.36742 0.13942,0.34854 0.22089,0.6615 0.18138,0.69505 -0.0395,0.0335 -0.36387,0.15093 -0.72088,0.26097 -0.61144,0.18844 -0.62296,0.17387 -0.19844,-0.25064 0.24787,-0.24786 0.45844,-0.65077 0.46767,-0.89503 0.006,-0.14988 0.0302,-0.20917 0.0749,-0.17777 z m 8.93951,0.39533 c 0.35017,0 0.27216,0.95953 -0.1018,1.25212 -0.58677,0.45907 -1.52136,0.58037 -1.52136,0.1974 0,-0.3636 1.21603,-1.44952 1.62316,-1.44952 z m -4.21266,0.0196 c -0.10283,-0.003 -0.25659,0.0763 -0.3912,0.21187 -0.25936,0.2613 -0.22928,0.29189 0.1478,0.14831 0.26094,-0.0994 0.40806,-0.2472 0.32659,-0.32866 -0.0204,-0.0204 -0.0489,-0.0305 -0.0832,-0.0315 z m -15.06937,0.15192 c 0.0248,-0.001 0.0411,0.005 0.0491,0.0196 0.032,0.058 -0.067,0.24896 -0.26458,0.63097 -0.44149,0.85372 -0.91214,1.0104 -0.90899,0.30231 10e-4,-0.25465 0.29546,-0.59921 0.6537,-0.76533 0.24394,-0.11311 0.39629,-0.18384 0.47078,-0.18758 z m -6.521047,0.44856 c 0.03163,0.005 0.06646,0.0189 0.102836,0.0413 0.145521,0.0899 0.264583,0.21591 0.264583,0.28008 0,0.0642 -0.119062,0.11679 -0.264583,0.11679 -0.145521,0 -0.264583,-0.12598 -0.264583,-0.28009 0,-0.11557 0.06687,-0.17408 0.161747,-0.15813 z m -5.882846,0.56792 c 0.10696,0.009 0.390824,0.318 0.791168,0.92294 0.387096,0.58502 0.672512,1.05432 0.634068,1.04283 -0.531045,-0.15869 -0.808887,-0.42049 -1.1529,-1.08572 -0.308912,-0.59735 -0.379297,-0.88893 -0.272336,-0.88005 z m 22.658563,0.39946 c 0.65386,0 0.6702,0.31578 0.045,0.8816 -0.26414,0.2391 -0.88929,0.50545 -1.38906,0.59169 l -0.90899,0.1571 0.86403,-0.81545 c 0.47524,-0.44831 1.10032,-0.81494 1.38906,-0.81494 z m -19.451006,0.0884 c 0.205478,0 0.312142,0.0989 0.237194,0.22014 -0.07495,0.12126 -0.18161,0.22066 -0.237194,0.22066 -0.05558,0 -0.162251,-0.0994 -0.237196,-0.22066 -0.07495,-0.12127 0.03172,-0.22014 0.237196,-0.22014 z m 14.155206,0.17622 c 0.0136,-0.0137 0.12091,0.0664 0.33073,0.23099 0.25466,0.19971 0.46302,0.40808 0.46302,0.46302 0,0.21775 -0.21711,0.0774 -0.56276,-0.36329 -0.16455,-0.20981 -0.24465,-0.31707 -0.23099,-0.33072 z m 6.52105,0.37413 c 0.067,-0.0282 0.0935,0.0424 0.0935,0.20619 0,0.23853 0.14883,0.49401 0.33073,0.56741 0.21664,0.0874 0.18672,0.14031 -0.0863,0.15399 -0.22929,0.0115 -0.67584,0.29676 -0.99219,0.63356 -0.69377,0.73847 -0.82971,3.01044 -0.19482,3.25406 0.55472,0.21286 0.24134,0.76032 -0.44958,0.78548 -0.32582,0.0119 -0.94254,0.11977 -1.37046,0.23978 l -0.77773,0.21808 0.87798,-0.78497 c 0.72573,-0.64847 0.90121,-1.02301 1.01027,-2.15801 0.11641,-1.21141 0.0733,-1.37424 -0.36483,-1.38337 -0.33489,-0.007 -0.22772,-0.12764 0.32918,-0.37001 0.45427,-0.1977 1.01981,-0.63632 1.25677,-0.97461 0.16272,-0.23231 0.27042,-0.35936 0.33744,-0.38758 z m -20.195148,0.0176 c 0.135485,0.007 0.312645,0.10983 0.447516,0.27234 0.265843,0.3203 0.249521,0.39429 -0.08681,0.39429 -0.493945,0 -0.816774,-0.43155 -0.479042,-0.64027 0.03285,-0.0203 0.07318,-0.0287 0.118341,-0.0264 z m 13.227618,0.3545 c 0.1355,-0.0296 0.3088,0.17294 0.55965,0.63872 0.25809,0.47922 0.42772,1.14889 0.37672,1.48777 l -0.093,0.61598 -0.59531,-0.63717 c -0.61148,-0.65427 -0.75103,-1.40291 -0.37259,-1.99936 0.0383,-0.0603 0.0794,-0.0961 0.12455,-0.10594 z m -7.21093,0.0475 c 0.15411,0 0.20672,0.11907 0.11679,0.26458 -0.0899,0.14552 -0.21592,0.26459 -0.28009,0.26459 -0.0642,0 -0.11679,-0.11907 -0.11679,-0.26459 0,-0.14551 0.12598,-0.26458 0.28009,-0.26458 z m -4.82968,0.0548 c 0.04751,0.014 0.05168,0.16012 0.05168,0.4501 0,0.68462 1.580324,2.40554 2.209167,2.40554 0.225603,0 0.507852,-0.17393 0.626835,-0.38654 0.14256,-0.25474 0.225576,-0.0245 0.243912,0.67489 0.01855,0.70729 0.225962,1.27176 0.621156,1.69241 0.55999,0.59607 0.56366,0.62377 0.0636,0.49299 -0.724143,-0.18938 -0.89767,0.20168 -0.684717,1.54513 0.220792,1.39291 1.545527,2.86029 2.582277,2.86029 0.74968,0 0.95692,-0.63377 0.29093,-0.88935 -0.21828,-0.0838 -0.39687,-0.0371 -0.39687,0.10386 0,0.14095 0.13873,0.25632 0.30851,0.25632 0.16977,0 0.23303,0.0755 0.14056,0.16795 -0.0925,0.0925 -0.49791,-0.0479 -0.90124,-0.31213 l -0.73329,-0.48059 0.79117,-0.21704 c 0.64385,-0.17675 0.85912,-0.11881 1.15445,0.31213 0.19965,0.29126 0.51984,0.52968 0.71158,0.52968 0.21188,0 0.38056,0.38918 0.43047,0.99219 0.0703,0.84898 0.18267,1.00381 0.77773,1.0728 0.61689,0.0715 0.71679,-0.0331 0.88367,-0.92604 0.10347,-0.55363 0.30852,-1.15246 0.45578,-1.33067 0.18648,-0.22568 0.0989,-0.67286 -0.28835,-1.47278 -0.30581,-0.63169 -0.55604,-1.41393 -0.55604,-1.73839 0,-0.5602 1.06093,-1.88802 1.50947,-1.88929 0.11575,-3.2e-4 0.17079,0.83313 0.12247,1.85208 -0.0877,1.84973 -0.0865,1.8526 0.6134,1.8526 0.60535,0 0.67559,0.0812 0.51573,0.59531 -0.1018,0.32742 -0.28874,0.63518 -0.41496,0.68368 -0.12629,0.0485 -0.22944,0.25688 -0.22944,0.46302 0,0.20616 -0.11907,0.37466 -0.26459,0.37466 -0.15434,0 -0.26458,0.88194 -0.26458,2.11666 0,2.05555 0.0929,2.27987 0.8847,2.13941 0.12279,-0.0218 0.18231,0.0541 0.13229,0.16846 -0.7119,1.62766 -1.05071,2.77906 -0.91881,3.12281 0.24746,0.6448 0.60143,0.27144 1.78026,-1.87637 0.59373,-1.08193 1.13586,-1.96681 1.20406,-1.96681 0.0682,0 0.0553,0.11052 -0.0284,0.24598 -0.34515,0.55845 0.47213,0.55848 1.0666,0 0.35296,-0.33165 0.65084,-0.55216 0.66197,-0.49041 0.0111,0.0617 0.0619,0.33145 0.11266,0.59945 0.0507,0.268 0.0275,0.42228 -0.0517,0.34313 -0.20275,-0.20274 -1.93322,1.91817 -1.93322,2.36936 0,0.20452 -0.14882,0.37614 -0.33073,0.38138 -0.79287,0.0228 -3.30424,2.90042 -2.98379,3.41891 0.27907,0.45149 0.98916,0.31563 1.66398,-0.31833 0.35583,-0.33434 0.0867,0.21528 -0.61599,1.25677 -0.68676,1.01801 -1.45581,2.3273 -1.70842,2.90939 -0.60016,1.38288 -0.88262,2.60376 -0.55604,2.40192 0.13893,-0.0859 0.29653,-0.0241 0.35037,0.13746 0.0538,0.16152 0.41932,-0.28431 0.81235,-0.99064 0.39304,-0.70632 0.94977,-1.58188 1.23662,-1.94562 0.46391,-0.58836 0.44845,-0.46052 -0.13591,1.156 -0.97081,2.68521 -1.26357,5.29207 -0.9157,8.15299 0.26998,2.22041 0.9545,4.185 1.59628,4.58164 0.31632,0.19543 0.0987,0.66145 -0.30903,0.66146 -0.15251,0 -0.21604,-0.15892 -0.14159,-0.35295 0.0745,-0.19403 -0.0268,-0.35295 -0.22479,-0.35295 -0.19801,0 -0.30791,0.0851 -0.24391,0.18862 0.18738,0.3032 -1.36552,0.51778 -3.67833,0.50849 l -2.14974,-0.009 1.45262,-0.50126 c 0.79877,-0.27571 1.72151,-0.81381 2.05052,-1.19631 0.55108,-0.6406 0.5975,-0.95012 0.59377,-3.92224 -0.003,-2.1808 -0.0871,-3.09755 -0.26045,-2.82929 -0.21459,0.33198 -0.25707,0.31421 -0.26045,-0.11007 -0.01,-1.186 -0.32557,-0.0214 -0.68058,2.50838 -0.21005,1.49671 -0.55231,2.98211 -0.76068,3.30005 -0.20836,0.31801 -1.37849,1.07324 -2.60036,1.67845 l -2.221566,1.10071 -4.675685,-0.0238 c -4.894085,-0.0248 -5.299282,-0.13477 -4.191992,-1.13688 0.665123,-0.60194 0.975683,-0.55194 1.614373,0.25993 0.534721,0.67987 0.587074,0.69034 2.022616,0.40204 2.321748,-0.46622 7.040964,-2.56925 7.971604,-3.55223 1.0389,-1.0972 1.22234,-1.72756 2.17196,-7.46931 1.05054,-6.35243 1.20759,-8.20186 0.82166,-9.65833 -0.86122,-3.2497 -4.609909,-4.60422 -8.339028,-3.01325 -3.060155,1.30548 -4.016854,1.54994 -4.752166,1.21491 -1.170502,-0.53326 -0.843002,-1.04881 0.584978,-0.92088 1.018617,0.0913 1.557515,-0.0401 2.844271,-0.69504 1.050637,-0.53478 1.376145,-0.63117 0.962731,-0.28422 -0.844401,0.70864 -0.211851,0.66984 0.757061,-0.0465 0.985398,-0.72859 3.437073,-0.80623 4.675683,-0.1478 0.51079,0.27152 0.87447,0.33972 0.92966,0.17415 0.0499,-0.1496 0.56515,0.0873 1.14515,0.52607 1.20189,0.90925 1.85646,1.05096 1.61127,0.34933 -0.10248,-0.29328 0.0676,-0.20653 0.46405,0.23668 0.40058,0.44771 0.74877,0.62365 0.96687,0.48886 0.50592,-0.31272 -0.43284,-1.77881 -1.81281,-2.83135 -1.32103,-1.00764 -2.35176,-1.3198 -5.365047,-1.62523 -2.617911,-0.26536 -3.54531,-0.68759 -4.844147,-2.20503 -0.527749,-0.61654 -1.28364,-1.26442 -1.680001,-1.44022 -0.525301,-0.23299 -0.59018,-0.32592 -0.239263,-0.34158 0.34344,-0.0153 0.457189,-0.19183 0.396875,-0.6165 -0.07333,-0.51632 -0.242231,-0.59532 -1.271757,-0.59532 -0.919345,0 -1.206947,0.10397 -1.275891,0.46199 -0.05854,0.30398 0.15662,0.55599 0.628385,0.73536 0.394575,0.15001 0.651052,0.33907 0.569991,0.42013 -0.08106,0.0811 -0.02543,0.49671 0.123508,0.92397 0.292385,0.83872 1.098962,1.41872 1.669147,1.19993 0.194869,-0.0748 0.423694,0.0446 0.508498,0.26561 0.234286,0.61053 0.20579,0.62958 -0.524518,0.35192 -0.916175,-0.34834 -2.927781,-0.32627 -3.638537,0.0398 -0.317848,0.1637 -0.845646,0.54152 -1.173054,0.83974 -0.327416,0.29822 -0.595313,0.40769 -0.595313,0.2434 0,-0.4066 -1.617756,-0.6807 -2.662887,-0.45114 -0.468661,0.10294 -1.387991,0.68033 -2.042769,1.28261 -0.860827,0.7919 -1.148371,0.94843 -1.038696,0.56586 0.08342,-0.29104 0.29333,-1.24354 0.466121,-2.11667 0.172785,-0.8731 0.609679,-2.38648 0.971,-3.3631 l 0.656808,-1.77612 1.02371,1.29553 c 0.563113,0.7124 1.235647,1.41875 1.494482,1.56941 0.37274,0.21697 0.209386,0.27527 -0.785998,0.28164 -1.026738,0.007 -1.256771,0.0944 -1.256771,0.48007 0,1.04245 2.987726,1.91143 3.347599,0.97359 0.08584,-0.2237 -0.0563,-0.64143 -0.315743,-0.92811 -0.460142,-0.50846 -0.452757,-0.5183 0.29869,-0.39998 3.663178,0.57681 3.82528,0.4688 2.407088,-1.60972 -1.2033,-1.76389 -2.252124,-2.27706 -4.346505,-2.12701 l -1.651578,0.11834 0.725537,-1.29243 c 0.399095,-0.71094 0.917052,-1.54668 1.150834,-1.85725 0.419988,-0.55793 0.436251,-0.54799 1.371492,0.8599 0.933634,1.40545 2.116153,2.35127 2.940389,2.35127 0.551638,0 0.536493,-0.48296 -0.03669,-1.16995 -0.252379,-0.3025 -0.09899,-0.22448 0.340548,0.17311 0.860438,0.7783 2.49959,1.2789 2.49959,0.76327 0,-0.21561 0.145489,-0.20946 0.517281,0.0227 0.284358,0.17761 0.600652,0.2396 0.7028,0.13745 0.290388,-0.29044 -0.668846,-2.18431 -1.583368,-3.1259 -0.618061,-0.63635 -0.681323,-0.77463 -0.249597,-0.54622 0.891564,0.47168 1.334138,0.36721 1.516187,-0.35812 0.16315,-0.65002 0.180639,-0.65424 0.854213,-0.21291 0.653978,0.42854 0.705799,0.42627 1.052647,-0.0481 0.174517,-0.23865 0.265589,-0.35712 0.313161,-0.34313 z m 29.08711,0.27905 c 0.0443,-0.0222 0.0687,-0.0237 0.0687,5.3e-4 0,0.0956 -0.26789,0.4245 -0.59531,0.73019 -0.50879,0.47502 -0.5217,0.52719 -0.0889,0.36174 0.37234,-0.14234 0.45161,-0.10429 0.29869,0.14314 -0.25516,0.41284 -1.93997,1.14215 -2.22777,0.96428 -0.11486,-0.071 -0.20878,0.03 -0.20878,0.22479 0,0.27469 0.18271,0.29673 0.81546,0.0977 0.44869,-0.14114 0.99456,-0.26265 1.21285,-0.26975 0.56653,-0.0184 1.10319,-0.50038 0.96324,-0.86506 -0.0655,-0.17071 0.0354,-0.31006 0.22376,-0.31006 0.51748,0 -0.0573,1.44124 -0.75447,1.89188 -0.75772,0.48978 -1.70718,0.64095 -2.74867,0.43718 l -0.86093,-0.16847 1.07745,-1.19062 c 0.59242,-0.65483 1.00221,-1.04179 0.91106,-0.8599 -0.29492,0.58855 0.21597,0.35137 1.11001,-0.51521 0.3599,-0.34882 0.67065,-0.60584 0.80356,-0.67231 z m -32.048687,0.0217 c 0.03163,0.005 0.06646,0.0189 0.102836,0.0413 0.145521,0.0899 0.264583,0.21592 0.264583,0.28009 0,0.0642 -0.119062,0.11679 -0.264583,0.11679 -0.145521,0 -0.264583,-0.12598 -0.264583,-0.28009 0,-0.11557 0.06687,-0.17408 0.161747,-0.15813 z m -4.945952,0.47077 c 0.09192,0.004 0.170496,0.0284 0.214457,0.0724 0.08792,0.0879 -0.06836,0.14999 -0.347266,0.1385 -0.308219,-0.0127 -0.370746,-0.0752 -0.15968,-0.15968 0.09549,-0.0382 0.20058,-0.055 0.292489,-0.0512 z m 28.358989,0.24702 c 0.0546,0.006 0.0947,0.0182 0.11576,0.0393 0.26901,0.269 -0.60741,2.00945 -1.16117,2.3058 -0.71001,0.37997 -0.82055,0.36349 -1.01854,-0.15244 -0.24238,-0.63161 0.47975,-1.76229 1.31258,-2.05518 0.29463,-0.10361 0.58771,-0.15404 0.75137,-0.13746 z m 2.98277,0.0248 c 0.23081,-0.0194 0.50689,-0.0116 0.85318,0.0109 l 1.25832,0.0816 -0.93845,0.99219 c -0.79351,0.83927 -1.10844,0.99218 -2.04587,0.99218 h -1.10846 l 0.47801,-0.81442 c 0.52822,-0.89975 0.81082,-1.20419 1.50327,-1.26245 z m -24.966953,0.2682 c -0.08341,-0.003 -0.143532,0.009 -0.173117,0.0382 -0.285189,0.28518 0.189825,2.05919 0.592727,2.21382 0.58375,0.224 0.762434,-0.10212 0.342617,-0.62529 -0.259096,-0.32283 -0.118753,-0.28396 0.47284,0.13074 0.462616,0.32433 1.097597,1.00432 1.410766,1.51102 0.580025,0.93859 0.90093,1.12017 1.180288,0.66818 0.191656,-0.3101 -0.520298,-2.0709 -1.093473,-2.70423 -0.421079,-0.46528 -2.14884,-1.21168 -2.732648,-1.23248 z m -6.832659,0.22376 c 0.0097,-0.002 0.02035,0.005 0.03152,0.0196 0.04469,0.0606 0.471415,0.6161 0.948263,1.23455 0.476852,0.61845 0.809913,1.12448 0.740006,1.12448 -0.242789,0 -1.769401,-1.87215 -1.769401,-2.1699 0,-0.12352 0.02047,-0.20268 0.04961,-0.20877 z m 1.934765,0.006 c 0.145515,0 0.443177,0.11526 0.661459,0.25631 0.218274,0.14106 0.277806,0.25632 0.132291,0.25632 -0.14552,0 -0.443183,-0.11526 -0.661458,-0.25632 -0.218281,-0.14105 -0.277812,-0.25631 -0.132292,-0.25631 z m 14.515907,0.39119 c 0.0385,0.0295 0.0934,0.16001 0.16847,0.39429 0.14122,0.44096 0.22063,0.50711 0.23823,0.19844 0.0145,-0.25466 0.1496,-0.46302 0.30024,-0.46302 0.18548,0 0.18822,0.15975 0.009,0.49454 -0.14551,0.2719 -0.20135,0.55726 -0.12403,0.63459 0.0773,0.0773 0.0231,0.21312 -0.1204,0.30179 -0.14347,0.0887 -0.44908,-0.0268 -0.67903,-0.25684 -0.46021,-0.4602 -0.57412,-1.03717 -0.15348,-0.77721 0.14552,0.0899 0.27644,-0.052 0.29094,-0.31522 0.009,-0.16954 0.0313,-0.24088 0.0698,-0.21136 z m 8.76381,0.12971 c 0.30563,0 -0.22175,1.48134 -0.72502,2.03605 -0.61687,0.67992 -2.04949,1.26332 -2.04949,0.83457 0,-0.80171 0.96222,-2.1742 1.757,-2.5063 0.47957,-0.20038 0.93731,-0.36432 1.01751,-0.36432 z m -22.722128,0.55498 c 0.05285,0.007 0.12397,0.0268 0.214457,0.0615 0.254049,0.0975 0.671294,0.17725 0.927075,0.17725 0.255783,0 0.600601,0.29767 0.766363,0.66146 0.361463,0.79331 0.183935,0.82264 -0.915191,0.15245 -0.848978,-0.51769 -1.362608,-1.10097 -0.992704,-1.05265 z m 10.554908,0.32712 c 0.19055,0 0.28582,0.1584 0.21136,0.35243 -0.0745,0.19402 -0.16973,0.35295 -0.21136,0.35295 -0.0416,0 -0.13638,-0.15893 -0.21084,-0.35295 -0.0745,-0.19403 0.0203,-0.35243 0.21084,-0.35243 z m 27.24072,0.19947 c 0.0941,-0.006 0.18552,-6.9e-4 0.27182,0.0165 0.43361,0.0865 0.43195,0.12794 -0.031,0.66456 -0.27161,0.31477 -0.76192,0.65047 -1.08934,0.74569 -0.4691,0.1364 -0.59532,0.0666 -0.59532,-0.32918 0,-0.501 0.78507,-1.0584 1.44384,-1.09761 z m -11.35021,0.24133 c 0.0642,0 0.11679,0.11906 0.11679,0.26458 0,0.14551 -0.12598,0.26458 -0.28009,0.26458 -0.15411,0 -0.20673,-0.11907 -0.11679,-0.26458 0.0899,-0.14552 0.21591,-0.26458 0.28009,-0.26458 z m 3.50676,0.16536 c 0.13554,0.003 0.22582,0.0978 0.22582,0.25683 0,0.2044 -0.01,0.36964 -0.0217,0.36742 -0.0121,-0.002 -0.18106,-0.10486 -0.37517,-0.22789 -0.29044,-0.1841 -0.28641,-0.24901 0.0222,-0.36742 0.0535,-0.0205 0.10365,-0.0299 0.14883,-0.0289 z m -20.19102,0.32298 1.38907,1.12034 c 0.76392,0.616 1.38906,1.1608 1.38906,1.21078 0,0.1961 -0.19326,0.0482 -1.46245,-1.11983 z m 18.16789,0.0408 h 0.82114 l -0.69712,0.54828 c -0.40234,0.31647 -0.69711,0.81317 -0.69711,1.17461 0,0.52092 0.15279,0.64018 0.90743,0.70848 0.7965,0.0721 0.86723,0.13594 0.58085,0.52452 -0.27967,0.37946 -0.36156,0.38833 -0.5762,0.0599 -0.13769,-0.21065 -0.78641,-0.4864 -1.44125,-0.61237 -0.65484,-0.12596 -0.98511,-0.24192 -0.73381,-0.25786 0.57921,-0.0367 1.37012,-1.21966 1.16789,-1.74667 -0.11615,-0.30268 0.0452,-0.39894 0.66818,-0.39894 z m 3.37912,0.32814 c 0.0509,0.003 0.10838,0.0165 0.17053,0.0403 0.23018,0.0883 0.77015,0.16072 1.19993,0.16072 0.69936,0 0.75165,0.0555 0.49816,0.52916 -0.21524,0.40217 -0.55419,0.52917 -1.4118,0.52917 -0.62062,0 -1.29909,0.14883 -1.50792,0.33073 -0.20883,0.18189 -0.11337,0.0254 0.21187,-0.34778 0.32524,-0.37318 0.59118,-0.83253 0.59118,-1.02061 0,-0.15235 0.0954,-0.23171 0.24805,-0.2217 z m -13.88597,0.26407 c 0.058,0.025 0.14694,0.13615 0.28473,0.31833 0.21366,0.28246 0.38861,0.66943 0.38861,0.85989 0,0.19047 -0.17859,0.34623 -0.39688,0.34623 -0.27309,0 -0.3944,-0.2682 -0.3886,-0.85989 0.005,-0.50835 0.0155,-0.70619 0.11214,-0.66456 z m 8.74158,0.20154 c 0.23643,0 0.36323,0.10703 0.28215,0.23823 -0.21837,0.35342 -1.73581,0.83499 -1.73581,0.55087 0,-0.3064 0.88943,-0.7891 1.45366,-0.7891 z m 3.22978,0 c 0.72756,0 0.77237,0.21381 0.14521,0.68988 -0.51234,0.3889 -1.38906,0.48771 -1.38906,0.15658 0,-0.40974 0.64203,-0.84646 1.24385,-0.84646 z m -33.258438,0.29869 c 0.119882,0 0.239778,0.0186 0.330729,0.0553 0.181894,0.0734 0.03306,0.13332 -0.330729,0.13332 -0.363796,0 -0.51263,-0.0599 -0.330729,-0.13332 0.09094,-0.0367 0.210839,-0.0553 0.330729,-0.0553 z m 7.33185,0.23047 c -0.706897,0 -0.759153,0.0614 -0.597378,0.7059 0.204311,0.81402 0.938445,1.95652 0.938445,1.46038 0,-0.25708 0.127712,-0.26455 0.561205,-0.0326 0.394356,0.21105 0.507767,0.21379 0.381373,0.009 -0.100883,-0.16322 -0.0021,-0.29094 0.225309,-0.29094 0.222996,0 1.15271,0.71016 2.066022,1.5782 1.405152,1.3354 2.586922,1.99932 2.586922,1.45366 0,-0.43711 -1.231231,-2.49243 -1.939415,-3.23753 -0.84863,-0.89287 -2.781064,-1.64641 -4.222483,-1.64641 z m 30.915948,0 c 0.37239,0 0.61238,0.1046 0.5333,0.23255 -0.2642,0.42747 -1.21026,0.53655 -1.21026,0.13952 0,-0.2228 0.27153,-0.37207 0.67696,-0.37207 z m -11.65562,0.82424 c 0.43843,0.001 0.38736,0.30354 -0.016,1.1529 -0.32442,0.68366 -0.83879,1.15563 -1.77974,1.63246 l -1.32395,0.67076 0.17467,-0.87384 c 0.21892,-1.09458 1.32105,-2.26945 2.33836,-2.49288 0.25998,-0.0571 0.46053,-0.0899 0.60668,-0.0894 z m -27.318749,0.1416 c 0.446256,-0.0478 1.574904,0.12631 2.300118,0.40204 0.533098,0.20268 0.584326,0.2961 0.269751,0.49506 -0.539803,0.3414 -0.85306,0.31357 -0.624768,-0.0558 0.129796,-0.21001 0.04551,-0.25359 -0.262516,-0.13539 -0.305963,0.11741 -0.392248,0.0743 -0.264584,-0.13229 0.125761,-0.20349 0.04379,-0.25108 -0.242879,-0.14108 -0.237486,0.0911 -0.503188,0.0501 -0.590662,-0.0915 -0.08748,-0.14153 -0.261653,-0.19378 -0.387056,-0.11627 -0.12541,0.0775 -0.294803,0.033 -0.376205,-0.0987 -0.04314,-0.0698 0.03005,-0.11014 0.178801,-0.12609 z m 36.418969,0.0925 c 0.64814,0 0.63621,-0.0453 0.2713,1.00149 -0.15641,0.44866 -0.54537,0.98648 -0.86403,1.19527 -0.794,0.52028 -2.08153,0.7625 -2.52801,0.47543 -0.28553,-0.18356 -0.17872,-0.33591 0.47077,-0.6718 0.46202,-0.23891 0.97367,-0.35181 1.1374,-0.25063 0.18748,0.11587 0.2239,0.0645 0.0982,-0.13901 -0.13284,-0.21494 -0.0457,-0.29503 0.25993,-0.23926 0.27883,0.0509 0.48854,-0.10318 0.53382,-0.39171 0.0652,-0.41562 -0.0755,-0.38801 -1.11673,0.22221 -1.04706,0.61363 -1.15772,0.63538 -0.91364,0.17932 0.31792,-0.59403 1.82905,-1.38131 2.651,-1.38131 z m 4.91649,0.0579 c 0.64426,-0.0379 1.19528,0.0151 1.19528,0.18603 0,0.43012 -1.831,1.90334 -2.66134,2.14147 -1.00165,0.28729 -1.83658,0.33943 -1.83658,0.11473 0,-0.5179 0.92317,-1.75986 1.54823,-2.08308 0.37294,-0.19285 1.11016,-0.32127 1.75441,-0.35915 z m -23.30348,0.2067 c 0.69699,0 1.23022,1.40798 1.04489,2.76004 -0.21293,1.55346 -0.60105,1.58777 -0.42633,0.0377 0.10391,-0.92178 0.009,-1.34377 -0.44752,-1.98437 -0.46935,-0.65914 -0.50166,-0.81339 -0.17104,-0.81339 z m 19.8856,0 c 0.28832,0 0.25395,0.1934 -0.15244,0.8599 -0.28836,0.47293 -0.52451,1.18733 -0.52504,1.5875 -0.001,0.76002 -0.0909,0.81131 -0.87384,0.50229 -0.43571,-0.17195 -0.41984,-0.24001 0.185,-0.80822 0.36331,-0.3413 0.73547,-0.96252 0.82734,-1.38079 0.0919,-0.41827 0.3344,-0.76068 0.53898,-0.76068 z m -6.92722,0.37776 c 0.0998,0.005 0.19783,0.0181 0.29042,0.0413 0.75844,0.19037 0.86388,0.50677 0.24805,0.7431 -0.63307,0.24293 -1.64711,0.19272 -1.82211,-0.0904 -0.21221,-0.34334 0.58486,-0.72782 1.28364,-0.69401 z m 8.49457,0.27698 c -0.0444,-0.0185 -0.1298,-0.008 -0.24753,0.0377 -0.22584,0.0867 -0.41083,0.20481 -0.41083,0.262 0,0.21429 0.50402,0.0938 0.65939,-0.15761 0.0463,-0.075 0.0439,-0.12357 -10e-4,-0.14211 z m -24.97625,0.15038 c 0.003,-0.019 0.0825,0.0464 0.24029,0.18707 0.46844,0.41771 1.1557,0.43706 0.90124,0.0253 -0.11791,-0.19077 -0.0725,-0.23378 0.12092,-0.1142 0.17033,0.10529 0.24134,0.30224 0.15762,0.43769 -0.24178,0.3912 -0.81932,0.28714 -1.20045,-0.21652 -0.14903,-0.19695 -0.22257,-0.30035 -0.21962,-0.31936 z m -11.422563,0.0212 c 0.09192,0.004 0.170497,0.0284 0.214458,0.0724 0.08792,0.0879 -0.06836,0.14998 -0.347266,0.1385 -0.30822,-0.0127 -0.370746,-0.0752 -0.15968,-0.15968 0.09549,-0.0382 0.20058,-0.0549 0.292488,-0.0512 z m 0.680062,0.3576 c 0.0444,0.0185 0.04742,0.0671 0.001,0.14211 -0.08891,0.14385 -0.273385,0.26149 -0.410311,0.26149 -0.380577,0 -0.296609,-0.18998 0.161748,-0.36587 0.117717,-0.0452 0.203132,-0.0563 0.24753,-0.0377 z m 28.916061,0.21343 c 0.0675,0.005 -0.0445,0.13066 -0.27233,0.3824 -0.66313,0.73281 -0.57403,1.08651 0.33435,1.32189 0.7358,0.19068 0.75863,0.23024 0.29817,0.51779 -0.42451,0.26511 -0.62218,0.18419 -1.32912,-0.54518 l -0.83044,-0.8568 0.99477,-0.47439 c 0.49009,-0.23373 0.73714,-0.35035 0.8046,-0.34571 z m -25.885756,0.45475 c 0.15411,0 0.280088,0.11907 0.280088,0.26458 0,0.14552 -0.05262,0.26459 -0.116789,0.26459 -0.06417,0 -0.190149,-0.11907 -0.280086,-0.26459 -0.08994,-0.14551 -0.03732,-0.26458 0.116787,-0.26458 z m 22.637376,0.53743 c 0.44519,0 0.46619,0.0437 0.1323,0.27751 -0.31412,0.21991 -0.27717,0.2447 0.17621,0.11782 0.41138,-0.11513 0.69102,0.008 0.99219,0.43822 0.23065,0.32928 0.4191,0.69145 0.4191,0.8046 0,0.11314 -0.39616,0.20567 -0.88005,0.20567 -1.09835,0 -2.40602,-1.18788 -1.75855,-1.59732 0.21447,-0.13563 0.62776,-0.2465 0.9188,-0.2465 z m 14.47664,0.10439 c 0.36926,-0.0772 -0.85935,1.8915 -1.50947,2.35231 -0.80807,0.57281 -2.51612,0.91029 -2.51612,0.49713 0,-1.2724 1.62181,-2.74183 2.91816,-2.64428 0.36797,0.0277 0.82286,-0.0453 1.01131,-0.16175 0.0395,-0.0244 0.0715,-0.0383 0.0961,-0.0434 z m -43.382366,0.17828 c 0.400169,-0.0145 0.727604,0.0927 0.727604,0.23823 0,0.14552 -0.02977,0.25273 -0.06614,0.23823 -0.03638,-0.0145 -0.363816,-0.12172 -0.727605,-0.23823 l -0.661458,-0.21187 z m 39.707656,0.12351 c 0.0856,0.03 0.0122,0.13551 -0.16175,0.33693 -0.20865,0.2416 -0.48721,0.64174 -0.61857,0.88935 -0.22019,0.41509 -0.31026,0.40516 -1.15496,-0.12971 -0.77685,-0.49184 -0.83645,-0.59428 -0.39326,-0.67179 0.28748,-0.0503 0.97783,-0.18967 1.53427,-0.30954 0.46384,-0.0999 0.70867,-0.1452 0.79427,-0.11524 z m -4.66328,0.90951 c 0.88282,7.9e-4 2.7249,0.80506 2.7249,1.18959 0,0.077 -0.38696,0.37568 -0.8599,0.66404 -0.47294,0.28836 -1.15755,0.51607 -1.52135,0.50591 -0.98474,-0.0275 -2.91042,-0.83343 -2.91042,-1.21801 0,-0.50592 1.43187,-1.14259 2.56677,-1.14153 z m -25.802045,0.50591 c 0.265773,-1.6e-4 0.649697,0.0693 1.252635,0.20825 0.81248,0.18728 1.804852,0.4029 2.205035,0.47905 1.155705,0.21993 0.845125,0.52973 -0.529167,0.52761 v -5.3e-4 c -0.691224,-0.001 -1.631262,0.0821 -2.088761,0.18449 -0.736867,0.16495 -0.81634,0.12716 -0.6966,-0.33073 0.103253,-0.39484 5.29e-4,-0.51676 -0.435115,-0.51676 -0.454457,0 -0.5059,-0.0699 -0.251664,-0.3421 0.130267,-0.13942 0.277863,-0.20913 0.543637,-0.20929 z m -5.582089,0.16795 c 0.180484,-0.004 0.401979,0.0302 0.645438,0.10283 0.778176,0.23219 0.775498,0.23538 -0.257348,0.25787 -0.678101,0.0148 -0.954749,-0.068 -0.787549,-0.23513 0.07968,-0.0797 0.218975,-0.12164 0.399459,-0.12557 z m 17.387574,0.0915 c 0.0559,-0.0155 0.12534,0.0117 0.20515,0.0915 0.0837,0.0837 0.1066,0.49033 0.0512,0.90382 l -0.10077,0.75189 -0.21549,-0.74001 c -0.15486,-0.5318 -0.10783,-0.96066 0.0599,-1.00717 z m -15.025962,0.0568 c 0.09904,0.002 0.19953,0.0684 0.328147,0.19792 0.265303,0.26726 0.226047,0.29891 -0.198438,0.1602 -0.427032,-0.13955 -0.452564,-0.1182 -0.132291,0.11058 0.218281,0.15593 0.605234,0.21826 0.859895,0.13901 0.254662,-0.0792 0.463021,-0.0807 0.463021,-0.003 0,0.44188 -1.113896,0.55799 -2.645834,0.27596 -1.692256,-0.31155 -1.70031,-0.31704 -0.51573,-0.34882 0.66212,-0.0177 1.346729,-0.17523 1.521354,-0.34985 0.12347,-0.12346 0.220842,-0.1843 0.319876,-0.1819 z m -6.711217,0.32918 c 0.07482,-0.01 0.240164,0.0136 0.490926,0.0708 0.436549,0.0996 0.878998,0.31179 0.982885,0.47129 0.103897,0.15949 0.58016,0.30184 1.058334,0.31625 0.478176,0.0144 1.404992,0.0548 2.059822,0.0899 l 1.190626,0.0636 -0.848011,0.24547 c -0.466408,0.13486 -1.002202,0.45297 -1.190625,0.70693 -0.188416,0.25397 -0.910901,0.60912 -1.605587,0.78962 -0.694686,0.1805 -1.766281,0.64102 -2.38125,1.02319 -0.614968,0.38223 -1.683844,1.29947 -2.375048,2.03812 l -1.256771,1.34307 v -2.5678 c -1e-6,-1.63232 0.102322,-2.56781 0.280603,-2.5678 0.154252,0 0.825913,-0.41679 1.492932,-0.92604 0.667027,-0.50933 1.337947,-0.92605 1.490348,-0.92605 0.152401,0 0.04579,0.17698 -0.236678,0.39326 -0.468175,0.35848 -0.435551,0.36725 0.371554,0.0977 0.65517,-0.21883 0.792769,-0.35787 0.529166,-0.53382 -0.112539,-0.0751 -0.128052,-0.11793 -0.05323,-0.12764 z m 24.435719,0.43511 c 0.0136,0.0137 -0.0664,0.12091 -0.231,0.33073 -0.19972,0.2546 -0.40808,0.46302 -0.46302,0.46302 -0.21776,0 -0.0774,-0.21763 0.36329,-0.56327 0.20982,-0.16455 0.31707,-0.24413 0.33073,-0.23048 z m -15.730824,0.0331 c 0.05568,-2.6e-4 0.10886,0.007 0.15658,0.0227 0.19816,0.066 0.07813,0.18601 -0.279569,0.27957 -0.440095,0.11509 -0.543089,0.0806 -0.34675,-0.11575 0.115311,-0.11531 0.302699,-0.18551 0.469739,-0.18655 z m 20.763074,0.11059 c 0.37993,0.0257 0.85318,0.13712 1.03094,0.29042 0.0606,0.0523 -0.26679,0.0951 -0.7276,0.0951 -0.46082,0 -0.83767,-0.12146 -0.83767,-0.26975 0,-0.0593 0.0779,-0.095 0.19998,-0.1111 0.0915,-0.012 0.2077,-0.0132 0.33435,-0.005 z m 15.06368,0.0388 c 0.27648,0.008 0.5677,0.071 0.90847,0.1881 1.32826,0.45659 1.36089,0.5583 0.37466,1.16634 -0.99371,0.61268 -2.0119,0.87802 -2.59364,0.67593 -0.21829,-0.0758 -0.57547,-0.19719 -0.79375,-0.26924 -0.31974,-0.10552 -0.28347,-0.2237 0.18706,-0.60771 0.32124,-0.26217 0.52359,-0.53682 0.44959,-0.61082 -0.074,-0.074 0.21735,-0.25726 0.6475,-0.40721 0.28166,-0.0982 0.54363,-0.14382 0.82011,-0.13539 z m -13.09326,1.15497 c 0.2147,0.0309 0.52551,0.20859 0.80254,0.5147 0.26339,0.29097 0.43048,0.51281 0.37155,0.49299 -0.0589,-0.0198 -0.36494,-0.0863 -0.68006,-0.1478 -0.31512,-0.0615 -0.63884,-0.28322 -0.71934,-0.49299 -0.10814,-0.28182 0.0106,-0.39777 0.22531,-0.3669 z m -23.514325,0.0393 c 0.04203,0.0165 -0.01238,0.0693 -0.157096,0.16071 -0.658135,0.41587 -1.405295,0.51366 -2.381251,0.31161 l -0.926041,-0.19172 1.190625,-0.0388 c 0.654844,-0.0211 1.488282,-0.10473 1.852084,-0.18552 0.24117,-0.0536 0.37965,-0.0728 0.421679,-0.0563 z m 31.958775,0.74 c 0.21828,0 0.47023,0.11907 0.56017,0.26459 0.0899,0.14545 -0.0148,0.26458 -0.23306,0.26458 -0.21828,0 -0.47075,-0.11913 -0.56069,-0.26458 -0.0899,-0.14552 0.0153,-0.26459 0.23358,-0.26459 z m -6.63216,0.28526 c 0.26423,-0.0115 0.68095,0.082 0.92605,0.20774 0.62537,0.32089 2.72369,0.56216 2.55798,0.29403 -0.22802,-0.36888 0.42529,-0.60465 0.75499,-0.27233 0.23475,0.23662 0.18205,0.26546 -0.22169,0.12041 -0.29104,-0.10458 -0.44067,-0.0934 -0.33279,0.0259 0.10781,0.11894 0.0634,0.37625 -0.0987,0.57154 -0.16208,0.19529 -0.54823,0.35325 -0.85783,0.3514 -0.71478,-0.004 -3.37461,-1.27054 -2.728,-1.29863 z m -4.22816,0.49971 0.61702,0.57981 c 0.42852,0.40264 0.61422,0.86838 0.60771,1.52548 -0.005,0.52034 -0.17096,1.23811 -0.36845,1.59474 l -0.35915,0.64802 -0.55656,-0.9126 c -0.63035,-1.034 -0.69741,-1.77411 -0.2496,-2.75694 z m -15.799554,0.12402 c 0.44282,-0.0635 0.62068,0.41375 0.625284,1.53427 0.0029,0.71957 -0.203679,1.22089 -0.761193,1.84485 l -0.765844,0.8568 -0.327113,-1.09347 c -0.410464,-1.37001 -0.181107,-2.32893 0.694532,-2.90267 0.209894,-0.13753 0.386728,-0.21863 0.534334,-0.23978 z m -9.917224,0.66611 c -0.28056,-0.009 -0.723308,0.0956 -1.393197,0.28164 -1.287035,0.3575 -2.209795,1.33712 -2.61121,2.77089 -0.182208,0.65078 -0.495427,1.31907 -0.695565,1.48518 -0.200144,0.1661 -0.363802,0.46616 -0.363802,0.66662 0,0.54243 1.77,0.45004 3.120223,-0.16278 1.2445,-0.56483 1.955704,-1.77194 2.300635,-3.90467 0.12823,-0.79291 0.110519,-1.12234 -0.357084,-1.13688 z m 40.888458,0.0207 c 0.34208,-0.005 0.84921,0.34091 1.2485,0.85111 0.60549,0.77366 0.62712,0.87727 0.21756,1.03973 -0.25018,0.0993 -0.57381,0.18371 -0.71933,0.18811 -0.56732,0.0172 -1.63346,-0.76111 -1.92805,-1.40767 -0.34794,-0.76357 -0.1679,-0.84735 0.58963,-0.2744 0.28247,0.21365 0.63272,0.3886 0.77824,0.3886 0.14553,0 0.0334,-0.17495 -0.24908,-0.3886 -0.50228,-0.37991 -0.50099,-0.38865 0.0625,-0.39688 z m -12.39976,0.5209 c 0.40478,0 1.36598,1.07286 1.52342,1.70016 0.0866,0.3449 0.11821,0.86261 0.0698,1.15031 -0.0704,0.41832 -0.20388,0.47965 -0.66611,0.30644 -0.3179,-0.11917 -0.70486,-0.45394 -0.85989,-0.74362 -0.33002,-0.61666 -0.38004,-2.41329 -0.0672,-2.41329 z m 7.69307,0.0393 c 0.14678,0.0432 0.39592,0.23889 0.63666,0.51263 0.32098,0.36499 0.47714,0.50648 0.34726,0.31419 -0.34242,-0.50697 -0.0273,-0.69065 0.60462,-0.35243 0.64547,0.34548 0.99474,0.94758 1.47484,2.543 0.3191,1.0603 0.31081,1.17643 -0.0832,1.17564 -0.50417,-0.001 -1.88207,-0.79672 -2.32957,-1.34514 -0.39522,-0.48436 -0.96873,-2.62802 -0.75913,-2.83755 0.0222,-0.0222 0.0596,-0.0247 0.10852,-0.0103 z m -36.895936,0.25374 c 0.342744,-0.0358 0.377086,0.18143 0.264066,0.69918 -0.296615,1.35869 -0.697096,2.15592 -1.267106,2.52284 -0.312699,0.20129 -0.936886,0.49221 -1.387512,0.64648 l -0.819588,0.2806 0.363285,-1.09657 c 0.6009,-1.8129 0.969478,-2.35156 1.862419,-2.7249 0.462246,-0.19327 0.778781,-0.30613 0.984436,-0.32763 z m 34.479546,0.0264 c -0.26283,-0.0534 -1.13555,1.53388 -2.80448,5.10201 -1.33247,2.84868 -2.42259,5.29462 -2.42259,5.43533 0,0.14071 -0.11906,0.2558 -0.26458,0.2558 -0.48249,0 -0.27385,1.20707 0.35605,2.06085 0.91238,1.23659 1.95268,1.96853 3.32279,2.33785 1.61165,0.43433 2.09194,0.43301 3.56723,-0.0108 1.6451,-0.49513 2.95096,-1.52412 3.6344,-2.86391 0.48152,-0.94386 0.50381,-1.12901 0.16795,-1.37459 -0.2135,-0.15612 -0.46774,-0.53533 -0.56534,-0.84285 -0.52427,-1.65176 -4.66671,-10.03362 -4.99143,-10.09964 z m -31.99546,0.002 c -0.25968,-0.0517 -1.15844,1.61175 -2.859257,5.29167 -1.364318,2.95184 -2.578814,5.40697 -2.698544,5.45548 -0.504624,0.20444 -0.152138,1.34809 0.734839,2.38435 0.994828,1.1622 2.071012,1.84777 3.413229,2.17454 1.232269,0.30001 1.802202,0.27701 3.145028,-0.12712 1.62315,-0.48852 2.948956,-1.5201 3.60443,-2.805 0.630274,-1.23544 0.658624,-1.58285 0.129709,-1.58285 -0.218281,0 -0.400688,-0.14889 -0.405662,-0.33073 -0.01929,-0.70688 -4.706419,-10.38916 -5.063772,-10.46034 z m 5.030183,0.12247 c 0.258496,0.0273 0.360185,0.45872 0.360185,1.34876 0,0.67536 -0.175146,1.10577 -0.584977,1.43764 -0.872194,0.70631 -1.055749,0.58995 -1.055749,-0.67077 0,-0.86519 0.154586,-1.28946 0.633553,-1.73942 0.280225,-0.2632 0.491892,-0.39256 0.646988,-0.37621 z m 20.753767,0.4501 c 0.0278,-0.0278 0.0647,0.009 0.10698,0.11473 0.0764,0.19093 0.0669,0.41902 -0.0212,0.50694 -0.0879,0.0879 -0.14998,-0.0684 -0.1385,-0.34726 0.006,-0.15412 0.0249,-0.24659 0.0527,-0.27441 z m 9.05423,0.29663 0.64131,0.7276 c 0.35272,0.40012 0.68021,0.72761 0.7276,0.72761 0.20744,0 0.0387,-0.21439 -0.6413,-0.81391 z m -2.90886,0.21032 c 0.0103,-0.0298 0.14533,0.14883 0.30024,0.39688 0.23427,0.37513 0.18067,0.45113 -0.31833,0.45113 -0.48996,0 -0.54486,-0.0728 -0.30024,-0.39687 0.16473,-0.21828 0.30801,-0.42138 0.31833,-0.45114 z m -32.091068,0.33023 c 0.151359,-0.003 0.339543,0.0933 0.474389,0.2558 0.362387,0.43665 0.348287,0.44252 -0.381888,0.15658 -0.309646,-0.12126 -0.399805,-0.26924 -0.22841,-0.37517 0.03894,-0.0241 0.08546,-0.0363 0.135909,-0.0372 z m -0.413411,1.99523 c 0.05026,-0.0606 0.09147,1.57654 0.09147,3.63802 v 3.74809 h -1.719821 c -0.945866,0 -1.719792,-0.0517 -1.719792,-0.11472 0,-0.1325 3.210883,-7.10583 3.348116,-7.27139 z m 33.176269,0.11007 0.49093,1.05834 c 0.27005,0.58201 1.0344,2.21919 1.6986,3.63802 l 1.20768,2.57968 h -1.70481 -1.70428 l 0.006,-3.63802 z m -1.36426,0.26459 0.0145,3.50573 0.015,3.50572 h -1.60507 c -1.90457,0 -1.91625,0.29758 0.15142,-4.03076 z m 0.72089,0.092 c 0.0107,0.0392 0.0224,0.20319 0.0346,0.50333 0.049,1.20048 0.049,3.16507 0,4.36562 -0.049,1.20048 -0.0889,0.21822 -0.0889,-2.18281 0,-1.80082 0.0223,-2.80381 0.0543,-2.68614 z m -31.26476,0.0703 c 0.06498,0.065 0.832861,1.63253 1.706356,3.4835 l 1.588016,3.36569 h -1.706354 -1.706356 v -3.48351 c 0,-1.91596 0.05335,-3.43067 0.118338,-3.36568 z m 14.88591,3.97856 c 0.0127,0.0195 -0.0603,0.17753 -0.20877,0.48938 -0.38571,0.80983 -0.50798,0.9599 -0.50798,0.62373 0,-0.14196 0.18504,-0.48905 0.41135,-0.77153 0.19392,-0.24213 0.29266,-0.36112 0.3054,-0.34158 z m 1.7384,2.97088 c 0.0278,-0.0278 0.0647,0.009 0.10697,0.11472 0.0764,0.19093 0.0669,0.41903 -0.0212,0.50695 -0.0879,0.0879 -0.14997,-0.0684 -0.13849,-0.34727 0.006,-0.15411 0.0249,-0.24658 0.0527,-0.2744 z m 18.4552,0.42892 -0.032,0.0305 c 0.0403,-0.009 0.082,-0.0134 0.12558,-0.0124 0.0126,2.6e-4 0.0254,0.001 0.0382,0.003 0.12306,0.003 0.24635,0.007 0.36845,0.0243 0.14526,0.0239 0.31138,0.0609 0.39843,0.19481 0.0269,0.0414 0.0391,0.0906 0.0589,0.13592 0.002,0.0348 0.008,0.0696 0.007,0.10438 -0.005,0.1287 -0.0719,0.24529 -0.13023,0.35605 -0.0618,0.11071 -0.13462,0.21384 -0.216,0.31109 -0.0674,0.0969 -0.13,0.19613 -0.19276,0.29611 -0.0594,0.10362 -0.1012,0.21831 -0.17518,0.31419 -0.0929,0.12121 -0.20535,0.22107 -0.3452,0.28577 -7.9e-4,2.7e-4 -0.002,2.5e-4 -0.003,5.3e-4 -0.22824,0.18749 -0.65544,0.44348 -1.33222,0.75861 -2.40781,1.12116 -4.7412,0.63349 -6.48797,-1.35599 -0.82015,-0.93402 -0.85224,-1.03355 -0.3943,-1.21336 0.27441,-0.10774 2.25676,-0.20424 4.40542,-0.21446 z m -30.670994,0.002 -0.477488,0.8232 c -0.575487,0.99262 -1.743771,1.90443 -2.964161,2.31304 -2.091895,0.70041 -4.277129,0.0652 -5.8198,-1.69189 -0.817498,-0.93103 -0.850756,-1.03309 -0.394291,-1.20302 0.2744,-0.10216 2.559124,-0.19819 5.07721,-0.21343 z m 31.109734,0.41806 c -1.7e-4,-5.3e-4 -5.3e-4,-1.6e-4 -0.001,5.3e-4 -0.002,0.002 -0.004,0.0122 -0.007,0.0264 7.9e-4,-0.002 0.002,-0.005 0.003,-0.007 0.004,-0.0116 0.005,-0.0183 0.005,-0.0196 z m -0.44752,0.30592 c -8e-4,-1.2e-4 -0.002,2.7e-4 -0.003,5.3e-4 -0.002,5.3e-4 -0.004,0.002 -0.006,0.003 -0.004,0.003 -0.008,0.006 -0.0124,0.009 0.005,-7.9e-4 0.008,-5.3e-4 0.0129,-0.002 0.003,-0.003 0.01,-0.005 0.009,-0.009 -8e-5,-7.9e-4 -8e-4,-10e-4 -0.002,-0.002 z m -0.31316,0.31678 c -0.004,0.004 -0.0128,0.0225 -0.0103,0.03 2.6e-4,7.9e-4 2.5e-4,0.002 5.3e-4,0.003 0.006,-0.0106 0.011,-0.0217 0.0119,-0.031 2.4e-4,-0.003 -8e-4,-0.003 -0.002,-0.002 z m -18.69757,0.56224 c 0.12752,2.6e-4 0.62293,0.93776 0.92811,1.79989 0.17468,0.49329 0.22581,1.13423 0.11472,1.43454 -0.15674,0.42371 -0.29747,0.15797 -0.6413,-1.21078 -0.24224,-0.96433 -0.43643,-1.84757 -0.43202,-1.96319 0.002,-0.0412 0.0123,-0.0605 0.0305,-0.0605 z m 0.032,2.9316 c 0.0387,-0.0155 0.11071,0.13093 0.25218,0.42427 0.15791,0.32735 0.44315,0.59531 0.63407,0.59531 0.19086,0 0.48934,0.26789 0.66301,0.59531 0.17373,0.32736 0.52462,0.74329 0.7798,0.92449 0.56301,0.39975 0.51211,1.00556 -0.12403,1.47071 -0.42729,0.31245 -0.43235,0.37679 -0.0532,0.69143 0.23005,0.19093 0.86576,0.50707 1.41284,0.70229 0.86427,0.3084 0.90466,0.3563 0.30696,0.36638 -1.2146,0.0205 -2.76726,-1.36533 -3.38791,-3.0241 -0.30492,-0.81496 -0.54624,-1.80469 -0.5364,-2.19935 0.009,-0.35363 0.014,-0.53122 0.0527,-0.54674 z m 3.07785,0.5271 c 0.0267,0.003 0.0167,0.0355 -0.0372,0.0951 -0.10788,0.11908 -0.0639,0.37626 0.0982,0.57155 0.16213,0.19529 0.23502,0.35501 0.16226,0.35501 -0.0728,0 -0.27142,-0.16836 -0.44183,-0.37362 -0.23871,-0.28762 -0.23112,-0.41878 0.0336,-0.57154 0.0945,-0.0545 0.15828,-0.0798 0.185,-0.0765 z m -7.43986,0.63252 c -0.0511,-0.028 -0.14662,0.13935 -0.31419,0.52142 -0.19146,0.43649 -0.28602,0.90231 -0.21032,1.03508 0.1586,0.27816 1.11351,-0.81091 1.10742,-1.26297 -0.002,-0.16578 -0.11938,-0.12268 -0.26044,0.0956 -0.21308,0.32965 -0.25906,0.30726 -0.27234,-0.1323 -0.005,-0.15282 -0.0195,-0.24006 -0.0501,-0.25683 z m -0.0651,0.75861 c 0.0269,-0.006 0.0515,-2.6e-4 0.0718,0.0202 0.0815,0.0815 5.3e-4,0.29492 -0.18035,0.47439 -0.2613,0.25936 -0.29189,0.22923 -0.14831,-0.14779 0.0745,-0.19571 0.1762,-0.32759 0.25683,-0.34675 z m 1.51981,0.25993 c 0.0278,-0.0278 0.0647,0.009 0.10697,0.11473 0.0764,0.19093 0.0669,0.41902 -0.0212,0.50694 -0.0879,0.0879 -0.14997,-0.0683 -0.13849,-0.34726 0.006,-0.15412 0.0249,-0.24659 0.0527,-0.27441 z m 4.35787,0.16847 c -0.36868,-0.008 -0.20169,0.80513 0.19689,0.95808 0.21745,0.0834 0.33063,0.25697 0.25115,0.38551 -0.0795,0.1286 0.0283,0.16745 0.23978,0.0863 0.6724,-0.25806 0.11662,-1.41346 -0.68782,-1.42989 z m 1.97094,0.95446 c 0.12144,0.0751 0.13931,0.26717 0.0403,0.42737 -0.11693,0.18919 -0.0205,0.23047 0.2744,0.1173 0.24972,-0.0958 0.38767,-0.0668 0.30644,0.0646 -0.0812,0.13143 -0.0151,0.28332 0.14728,0.33745 0.1782,0.0594 0.10633,0.25212 -0.18138,0.48576 -0.39479,0.32068 -0.43769,0.32233 -0.25012,0.0114 0.1641,-0.2722 0.11826,-0.33435 -0.16588,-0.22531 -0.28988,0.11124 -0.39222,-0.0461 -0.39222,-0.60255 0,-0.41408 0.0997,-0.69103 0.22118,-0.61598 z m 2.72852,1.01906 c 0.0444,-0.0185 0.13032,-0.007 0.24805,0.0377 0.22584,0.0867 0.41031,0.20481 0.41031,0.262 0,0.21429 -0.50402,0.0938 -0.6594,-0.15761 -0.0463,-0.075 -0.0439,-0.12357 10e-4,-0.14211 z m 9.04286,0.31626 c 0.4263,-0.0591 1.03241,0.2175 1.23351,0.74156 0.0894,0.23288 0.0183,0.38871 -0.16743,0.36794 -1.05228,-0.1176 -1.51308,-0.30684 -1.51308,-0.62167 0,-0.29623 0.19121,-0.45237 0.447,-0.48783 z m -10.78384,0.34468 c 0.52668,-0.0597 2.12775,0.54062 2.13217,0.86714 0.002,0.10907 -0.30199,0.19843 -0.67438,0.19843 -0.38394,0 -0.6064,-0.11458 -0.51366,-0.26458 0.0899,-0.14552 -0.0222,-0.26458 -0.24908,-0.26458 -0.22687,-1e-5 -0.41238,-0.12598 -0.41238,-0.28009 0,-0.15411 -0.1374,-0.1953 -0.30541,-0.0915 -0.18128,0.11204 -0.23411,0.0728 -0.12971,-0.0961 0.0236,-0.0382 0.0772,-0.0602 0.15245,-0.0687 z m 3.45767,0.8351 c 0.11989,0 0.23978,0.0186 0.33073,0.0553 0.1819,0.0734 0.0331,0.13332 -0.33073,0.13332 -0.3638,0 -0.51263,-0.0599 -0.33073,-0.13332 0.091,-0.0367 0.21084,-0.0553 0.33073,-0.0553 z m -17.805116,3.17138 c 0.0031,0.0124 0.0061,0.0336 0.0093,0.0465 0.0026,-0.0149 0.0058,-0.0299 0.0088,-0.045 -0.006,-2.7e-4 -0.01204,-0.001 -0.01807,-0.002 z m 1.000456,0.12092 c 7.94e-4,0.007 0.0021,0.0136 0.0026,0.0207 2.64e-4,1.7e-4 7.94e-4,2.5e-4 0.0011,5.3e-4 v -0.0207 c -0.0013,-2.2e-4 -0.0024,-2.5e-4 -0.0036,-5.3e-4 z m 22.09064,1.76837 c 0.005,0.002 0.009,0.004 0.0134,0.006 1.5e-4,-0.001 -1.4e-4,-0.002 0,-0.004 -0.004,-8e-4 -0.009,-0.002 -0.0134,-0.003 z m -0.0806,0.37775 c 0.006,0.005 0.0108,0.009 0.0165,0.0139 -2e-4,-0.002 -8e-5,-0.005 -5.3e-4,-0.007 -0.005,-0.002 -0.0111,-0.005 -0.016,-0.007 z m 3.21531,0.55139 c 0.002,0.005 0.002,0.0107 0.004,0.016 0.003,-5.3e-4 0.007,-10e-4 0.01,-0.002 -0.005,-0.005 -0.009,-0.01 -0.0139,-0.0145 z m -29.237497,0.1602 c -0.0019,2.2e-4 -0.0044,0.002 -0.0067,0.002 -2.64e-4,0.001 -0.0013,0.007 -0.0016,0.009 0.0028,-0.004 0.0055,-0.007 0.0083,-0.0109 z m 29.442647,0.0749 c -0.002,0.009 -0.001,0.0179 -0.002,0.0269 10e-4,-0.003 0.002,-0.006 0.004,-0.008 0.003,-0.006 -7.9e-4,-0.0246 -0.002,-0.0186 z m 0.12402,0.17932 c 0.001,0.009 0.002,0.0179 0.003,0.0269 0.002,-1.9e-4 0.005,-2e-5 0.007,-5.3e-4 -0.003,-0.01 -0.007,-0.0171 -0.01,-0.0264 z m -19.57348,0.0625 c 3e-5,0.002 0.001,0.003 0.001,0.005 5.3e-4,-2.7e-4 10e-4,-8e-4 0.002,-0.001 -7.9e-4,-0.001 -0.002,-0.002 -0.003,-0.004 z m 8.86458,0.7059 c -0.008,0.003 -0.0171,0.006 -0.0258,0.009 0.008,0.001 0.0159,0.003 0.0238,0.004 0.002,2.6e-4 0.004,1.8e-4 0.006,5.3e-4 -10e-4,-0.004 -0.003,-0.009 -0.004,-0.0134 z m -37.680396,2.26241 c -0.0051,0.005 -0.0042,0.004 0.0026,0.003 -7.67e-4,-7.9e-4 -0.0018,-0.002 -0.0026,-0.003 z m 32.250746,0.10904 c -0.007,7.9e-4 -0.0148,0.002 -0.0222,0.003 0.008,5.3e-4 0.0162,5.3e-4 0.0243,10e-4 -7.9e-4,-10e-4 -10e-4,-0.002 -0.002,-0.004 z m 9.60045,0.1049 c -0.002,-7.9e-4 -0.001,5.3e-4 0,0.003 0.002,-9e-5 0.004,5e-5 0.006,0 -0.002,-7.9e-4 -0.004,-0.002 -0.006,-0.003 z m 0.11265,0.0605 c -10e-4,0.006 -0.002,0.011 -0.003,0.0165 0.003,-0.004 0.006,-0.008 0.009,-0.0124 -0.002,-0.001 -0.004,-0.003 -0.006,-0.004 z m -10.45052,2.019 c -0.0188,0.005 -0.0366,0.004 -0.0553,0.008 0.0211,-0.002 0.0413,-0.003 0.0625,-0.006 -0.002,-7.9e-4 -0.005,-10e-4 -0.007,-0.002 z" /><text
         xml:space="preserve"
         transform="matrix(0.45139248,0,0,0.42950892,-67.231025,-41.318684)"
         id="text2"
         style="font-style:normal;font-variant:normal;font-weight:bold;font-stretch:normal;font-size:32px;font-family:'Californian FB';-inkscape-font-specification:'Californian FB, Bold';font-variant-ligatures:normal;font-variant-caps:normal;font-variant-numeric:normal;font-variant-east-asian:normal;white-space:pre;shape-inside:url(#rect2);opacity:1;fill:#134e70;fill-opacity:1;stroke:#134e70;stroke-width:0;stroke-linecap:round;stroke-miterlimit:0;stroke-dasharray:none;stroke-opacity:1"><tspan
           x="323.31055"
           y="437.58398"
           id="tspan1">H&amp;D
</tspan><tspan
           x="323.31055"
           y="477.58398"
           id="tspan2">Abogados</tspan></text></g><text
       xml:space="preserve"
       transform="scale(0.26458333)"
       id="text3"
       style="fill:#134e70;stroke-width:0;-inkscape-font-specification:'Footlight MT Light, ';font-family:'Footlight MT Light';stroke-linecap:round;font-size:32px;stroke:#134e70;fill-opacity:1;stroke-opacity:1;stroke-dasharray:none;opacity:1;stroke-miterlimit:0;font-weight:normal;font-style:normal;font-stretch:normal;font-variant:normal;white-space:pre;shape-inside:url(#rect3)" /></g></svg>
