<?xml version="1.0" encoding="UTF-8" standalone="no"?>
<!-- Created with Inkscape (http://www.inkscape.org/) -->

<svg
   version="1.1"
   id="svg1"
   width="300"
   height="300"
   viewBox="0 0 300 300"
   sodipodi:docname="PROPUESTA 8.1.svg"
   inkscape:version="1.3.2 (091e20e, 2023-11-25, custom)"
   xmlns:inkscape="http://www.inkscape.org/namespaces/inkscape"
   xmlns:sodipodi="http://sodipodi.sourceforge.net/DTD/sodipodi-0.dtd"
   xmlns="http://www.w3.org/2000/svg"
   xmlns:svg="http://www.w3.org/2000/svg">
  <defs
     id="defs1" />
  <sodipodi:namedview
     id="namedview1"
     pagecolor="#ffffff"
     bordercolor="#000000"
     borderopacity="0.25"
     inkscape:showpageshadow="2"
     inkscape:pageopacity="0.0"
     inkscape:pagecheckerboard="0"
     inkscape:deskcolor="#d1d1d1"
     showgrid="false"
     inkscape:zoom="3.5066667"
     inkscape:cx="148.71673"
     inkscape:cy="58.460076"
     inkscape:window-width="1366"
     inkscape:window-height="705"
     inkscape:window-x="-8"
     inkscape:window-y="-8"
     inkscape:window-maximized="1"
     inkscape:current-layer="g1" />
  <g
     inkscape:groupmode="layer"
     inkscape:label="Image"
     id="g1">
    <path
       id="path1"
       style="fill:#000000"
       d="m 156.62305,21.296875 c -5.53002,0 -19.64451,2.770134 -27.13086,5.324219 C 86.847366,41.16981 58.775334,83.514448 62.458984,127.73633 c 0.40136,4.81793 1.16893,8.56054 1.75586,8.56055 0.573485,-10e-6 3.731183,-2.93489 7.017578,-6.52149 3.286385,-3.5866 8.017632,-7.71689 10.513672,-9.17969 4.828845,-2.82972 13.246093,-4.71654 13.246094,-2.96875 0,0.557 0.744071,1.83599 1.654296,2.8418 2.73156,3.0184 9.972466,2.38581 19.935546,-1.73828 4.73716,-1.96095 8.79493,-3.38282 9.01758,-3.16016 0.22266,0.22265 -0.49819,1.22217 -1.60156,2.22071 -1.21082,1.09553 -2.06942,3.24034 -2.16602,5.41015 l -0.16015,3.59571 -0.40235,-3.25 c -0.29252,-2.35717 -0.91471,-3.25 -2.26367,-3.25 -3.07145,-1e-5 -7.8839,4.79651 -8.58984,8.56054 -0.88896,4.73856 0.29693,10.43946 2.17187,10.43946 3.02875,0 7.59024,-3.21064 8.86328,-6.23829 l 1.30664,-3.10937 0.69727,3.17383 c 0.47096,2.144 1.28589,3.17383 2.51367,3.17383 2.22566,-10e-6 7.76498,-6.12217 8.61914,-9.5254 0.85934,-3.42364 -0.3322,-9.06876 -2.33789,-11.07421 -1.55211,-1.5521 -1.49922,-1.61325 0.78906,-0.91211 8.70929,2.66839 13.37003,6.88862 14.54883,13.17187 0.90998,4.85061 -0.0705,15.43431 -3.12109,33.66602 -3.27172,19.55348 -4.76068,24.61616 -8.21289,27.92383 -2.99973,2.87367 -18.60575,9.81106 -26.56446,11.80859 -4.44796,1.11644 -4.94942,1.04688 -6.78906,-0.92774 -3.442044,-3.69446 -11.908203,-1.9003 -11.908202,2.52344 0,0.97723 -1.640745,1.3457 -6,1.34571 -5.733205,0 -6.000001,0.11111 -6,2.5 0,1.99975 0.500025,2.49999 2.5,2.5 1.37495,0 2.5,-0.47614 2.5,-1.0586 0,-0.58248 0.386196,-0.82054 0.857421,-0.5293 0.47124,0.29125 35.234761,0.5719 77.250001,0.625 l 76.39258,0.0957 0.32031,-2.06641 c 0.35309,-2.28394 -0.1288,-2.42644 -7.07031,-2.10351 -3.27639,0.15242 -4.75,-0.17166 -4.75,-1.04297 0,-4.48455 -7.45659,-6.46358 -11,-2.91992 -2.80614,2.80589 -6.0953,2.50694 -14.87305,-1.35352 -4.19422,-1.84458 -9.79788,-4.14484 -12.45117,-5.11133 -3.36617,-1.22618 -5.69066,-2.9541 -7.69336,-5.71875 -2.83696,-3.91606 -3.49787,-6.23693 -7.05859,-24.8164 l -1.82032,-9.5 0.57813,7.25 c 0.40319,5.06048 0.23549,7.25 -0.55274,7.25 -0.67554,0 -1.1289,-1.85133 -1.1289,-4.60743 0,-3.35213 -0.35176,-4.47151 -1.29102,-4.11133 -1.02636,0.39385 -1.08105,-0.40347 -0.27148,-3.89257 0.55998,-2.41358 1.36606,-4.38867 1.79101,-4.38867 0.42495,0 0.77149,-1.78602 0.77149,-3.96876 0,-3.0009 -0.34368,-3.83623 -1.40821,-3.42773 -1.19092,0.45711 -1.17774,-0.12445 0.0781,-3.77148 0.81673,-2.37059 1.24599,-5.4986 0.95508,-6.95313 -1.51096,-7.55453 4.64985,-15.7858 13.38281,-17.88086 2.80517,-0.67296 5.37591,-0.94831 5.71289,-0.61133 0.33698,0.33698 -0.28605,0.61329 -1.38477,0.61329 -5.0986,-1e-5 -6.39736,11.60793 -1.95117,17.4375 3.41867,4.48184 5.20358,4.49619 7.32032,0.0566 l 1.67187,-3.50586 1.2793,3.04296 c 1.29314,3.07548 7.44636,6.64182 9.38867,5.44141 1.56183,-0.96527 1.12076,-11.28957 -0.59375,-13.90625 -1.75215,-2.67412 -6.70741,-5.06591 -8.81836,-4.25586 -0.77176,0.29615 -2.35224,-0.5532 -3.51172,-1.88672 -2.98762,-3.43582 -0.86845,-3.19413 9.44727,1.07618 4.65006,1.92475 9.77114,3.49999 11.3789,3.5 6.3941,0 10.05036,-3.24027 8.42774,-7.46876 -0.56185,-1.46389 -1.45857,-1.64591 -5.48828,-1.11132 -4.17276,0.55354 -5.79089,0.17824 -12.10157,-2.81446 -9.24881,-4.3859 -15.65399,-5.99417 -21.33789,-5.35351 -3.73898,0.42146 -4.30092,0.27558 -3.34765,-0.87305 0.92904,-1.11942 0.59376,-1.3789 -1.77735,-1.3789 -1.60734,0 -3.52885,0.5625 -4.26953,1.25 -1.08287,1.00489 -1.20013,0.99196 -0.59961,-0.0664 0.4485,-0.79062 0.0272,-1.84365 -1.05469,-2.63477 -1.63432,-1.19523 -1.24928,-1.59632 4.1504,-4.333981 5.63106,-2.855025 9.45117,-7.04629 9.45117,-10.369141 0,-0.750045 1.05247,-1.345703 2.37695,-1.345703 h 2.375 l -2.375,2.201172 c -2.59646,2.406238 -3.08892,4.28936 -1.12695,4.3125 0.6875,0.0081 0.125,0.582231 -1.25,1.275391 -3.61537,1.822546 -3.60454,4.755598 0.0273,8.234372 2.61011,2.49951 3.88534,2.9645 7.97266,2.9043 2.6758,-0.0394 5.68402,-0.7144 6.68359,-1.5 1.65425,-1.30015 1.69649,-1.27322 0.47266,0.28906 -1.93677,2.47238 -1.11614,3.79653 3.3789,5.45508 9.97352,3.67986 15.55907,3.46707 20.0625,-0.76367 l 2.40235,-2.25781 v 2.17578 c 0,1.73852 0.58913,2.17383 2.93554,2.17383 1.6142,-1e-5 4.1792,-0.47409 5.70118,-1.05274 2.666,-1.01371 2.70642,-0.98213 1.0664,0.83008 -0.93618,1.03446 -1.70312,2.41735 -1.70312,3.07422 0,0.81378 -0.78133,0.68218 -2.45117,-0.41211 -3.27698,-2.14716 -6.54883,-1.0739 -6.54883,2.14844 0,3.32988 3.96712,5.20385 7.55664,3.56835 1.40601,-0.64037 2.30457,-1.57199 1.99805,-2.06835 -0.30677,-0.49637 0.38204,-0.65549 1.52929,-0.35547 1.43561,0.37542 1.70476,0.78022 0.86524,1.29882 -0.91139,0.56327 -0.95231,1.51816 -0.16407,3.7793 l 1.05469,3.02735 -3.16992,-1.82422 c -1.74334,-1.0032 -5.08242,-2.13228 -7.41992,-2.50782 -3.70833,-0.59578 -4.24868,-0.44715 -4.23828,1.15625 0.0234,3.62222 2.89433,12.57792 4.67382,14.58008 2.50938,2.82296 9.14396,5.71003 13.18165,5.73633 3.77782,0.0246 3.77358,0.25709 0.1621,-8.87891 l -2.13476,-5.39843 2.51758,1.64843 c 3.62819,2.37745 14.58789,1.98281 14.58789,-0.52539 0,-1.69399 -6.25464,-8.77106 -8.33594,-9.43164 -1.87316,-0.59452 -1.8021,-0.76026 0.90234,-2.13672 3.65624,-1.86047 8.4336,-6.25556 8.4336,-7.75781 0,-1.58894 -6.48876,-4.49804 -10.03321,-4.49804 -3.39458,0 -3.45446,-0.14161 -1.59375,-3.80079 0.75533,-1.485069 1.70529,-3.770271 2.10938,-5.078121 0.72747,-2.354565 0.67424,-2.372968 -5.37305,-1.935547 l -6.10742,0.441406 1.87305,-2.0625 c 2.42567,-2.670665 4.125,-6.002519 4.125,-8.08789 0,-1.390906 -0.9404,-1.601216 -5.90625,-1.316407 -3.24904,0.186352 -5.69792,0.0023 -5.44141,-0.410156 0.25651,-0.4125 1.81896,-0.75 3.47266,-0.75 4.23342,0 6.82377,-1.64843 8.37109,-5.328125 1.6873,-4.012617 0.46935,-5.671875 -4.16406,-5.671875 -3.66795,0 -8.33203,3.613742 -8.33203,6.455078 0,1.028965 -0.919,1.530556 -2.75,1.503906 l -2.75,-0.03906 2.61914,-1.423828 c 1.44019,-0.782632 3.35269,-2.970434 4.25,-4.861328 1.95529,-4.12035 2.19759,-11.5916 0.38086,-11.732422 -4.02596,-0.312068 -9.50635,0.410499 -11.13867,1.46875 -1.37577,0.891789 -3.157,0.965567 -6.55469,0.269531 -5.89652,-1.207863 -9.55926,-0.29221 -13.13477,3.283203 l -2.82031,2.820313 0.55469,-2.777344 c 0.42971,-2.148494 0.1364,-2.888397 -1.29883,-3.257813 -1.25746,-0.323635 -0.95889,-0.51517 0.92578,-0.59375 3.51459,-0.146516 8.78059,-2.323604 11.00586,-4.548828 1.61374,-1.613738 1.71094,-1.564862 1.71094,0.861328 0,2.256049 0.41506,2.572266 3.38867,2.572266 5.14366,0 7.89503,-2.773885 8.01367,-8.082031 0.097,-4.338522 0.0435,-4.411864 -2.90234,-4.066406 -1.65,0.193467 -3.77904,0.766024 -4.73047,1.273437 -1.51031,0.805479 -1.65311,0.538905 -1.125,-2.101563 l 0.60547,-3.023437 -6.375,0.0039 c -7.52071,0.0044 -11.86888,2.177324 -15.01172,7.503907 -1.13284,1.919965 -2.24026,3.492187 -2.46094,3.492187 -1.13055,0 -0.0394,-2.138479 3.24609,-6.355469 2.75927,-3.541539 3.76502,-5.897333 4.12696,-9.664062 0.45284,-4.712615 0.35077,-4.980063 -1.89844,-4.976563 -3.6162,0.0057 -8.68421,3.566708 -10.2832,7.22461 -0.86264,1.973386 -1.46252,2.576976 -1.51172,1.521484 -0.0449,-0.962475 -0.5433,-1.75 -1.10742,-1.75 -0.57239,0 -0.30321,-1.397384 0.60937,-3.162109 1.35125,-2.612974 1.43771,-3.822757 0.49805,-6.958985 -1.61734,-5.398053 -2.92809,-5.715141 -6.68164,-1.61914 l -3.27735,3.576171 -1.55273,-2.36914 c -1.52723,-2.330793 -6.90665,-4.449998 -11.32031,-4.460938 -2.9443,-0.0073 -2.9715,2.937765 -0.0742,8.091797 2.35544,4.190839 8.97897,7.617009 12.79492,6.619141 1.38366,-0.361835 2.0293,-0.04597 2.0293,0.992187 0,1.018008 0.64687,1.354753 1.95117,1.013672 1.86287,-0.487127 1.85424,-0.377669 -0.20117,2.402344 -1.91856,2.594916 -2.03224,3.36753 -1.03711,7.095703 0.88986,3.333781 0.83615,4.584136 -0.26367,6.154297 -1.25835,1.796495 -1.32946,1.65722 -0.80664,-1.564453 0.91282,-5.626472 -2.45437,-12.031712 -8.05274,-15.3125 -6.44251,-3.77561 -8.01664,-2.933416 -7.31055,3.910156 0.3046,2.951242 1.27686,6.766655 2.16211,8.478516 1.34333,2.597639 1.37545,3.113281 0.19141,3.113281 -1.84336,0 -2.63281,2.183052 -2.63281,7.283203 0,3.280085 0.65322,4.793003 3.19726,7.417969 4.40589,4.545608 5.61021,4.225907 6.39649,-1.701172 0.40703,-3.068251 1.16087,-5 1.95117,-5 0.70831,0 1.51556,-0.562525 1.79297,-1.25 0.30132,-0.746716 0.53678,-0.545413 0.58398,0.5 0.058,1.286649 0.93859,1.755334 3.32813,1.771484 l 3.25,0.02148 -4.1836,1.90039 c -4.92916,2.237975 -7.3164,6.192887 -7.3164,12.123047 0,4.401405 0.21318,4.493034 5.5,2.34961 1.1,-0.445986 0.33946,0.649493 -1.68946,2.435547 -4.05883,3.57314 -6.24563,8.730729 -5.59179,13.185546 0.25056,1.707176 -0.0777,3.077216 -0.80274,3.355466 -2.16677,0.83155 -2.23194,-8.266893 -0.0879,-12.267575 3.26398,-6.089723 0.24984,-14.011509 -5.92187,-15.560547 l -2.40625,-0.603516 V 47.277344 21.296875 Z m 0.36914,2.710937 V 47.59375 c 0,12.971748 -0.36788,23.813385 -0.81836,24.091797 -0.45047,0.278413 -0.62604,-0.818276 -0.38867,-2.435547 0.70701,-4.816986 -0.64255,-9.953125 -2.61524,-9.953125 -2.03907,0 -7.18087,7.491161 -7.17187,10.449219 0.003,1.127383 0.66122,3.30623 1.46093,4.839844 1.03565,1.985446 1.18568,3.497274 0.51954,5.25 -0.51474,1.353811 -1.11859,2.460937 -1.33985,2.460937 -1.37625,0 -3.0502,-3.70687 -2.79101,-6.177734 0.16887,-1.609899 -0.40857,-4.018672 -1.28321,-5.353516 -1.82996,-2.792798 -7.16534,-5.839219 -8.99609,-5.136719 -0.80109,0.307408 -1.24219,-0.479679 -1.24219,-2.214844 v -2.693359 l 2.28711,2.287109 c 2.8226,2.822553 3.99577,2.875654 5.40625,0.240235 1.38006,-2.578622 -0.20884,-7.900869 -3.1543,-10.566406 -2.00153,-1.811556 -2.08816,-1.80964 -3.46289,0.07031 -0.77532,1.060295 -1.41015,2.741843 -1.41015,3.738281 0,1.345048 -0.9304,0.780321 -3.61524,-2.191406 -3.79006,-4.19532 -7.38372,-5.290226 -7.38672,-2.251953 -9e-4,1.008731 -0.74214,0.275504 -1.75,-1.730469 -1.91373,-3.809437 -7.41995,-8.019531 -10.48828,-8.019531 -1.73247,0 -1.90673,0.600787 -1.60156,5.511719 0.28596,4.60173 0.094,5.405308 -1.1582,4.859375 -0.825,-0.359703 -2.80239,-0.877074 -4.39453,-1.148438 l -2.896488,-0.492187 0.527344,4.675781 c 0.289815,2.571393 1.368944,5.661534 2.396484,6.867187 1.83014,2.147352 1.82868,2.16141 -0.0391,0.708985 -1.32079,-1.027642 -4.149844,-1.451469 -9.216799,-1.380859 L 85.058594,62 88.042969,58.234375 C 101.73362,40.94863 128.08063,26.820486 150.74219,24.615234 Z m -6.44336,5.289063 c -3.45795,0 -4.7885,0.493059 -6,2.222656 -2.03827,2.909974 -2.07351,6.189567 -0.0566,5.416016 1.9233,-0.738002 1.90172,-0.183409 -0.0703,1.789062 -1.42857,1.428547 -1.35805,1.572266 0.77734,1.572266 3.17569,0 6.32942,-2.36314 8.22461,-6.162109 2.2518,-4.513733 2.05813,-4.837891 -2.875,-4.837891 z m 14.67969,0.08984 c 0.4813,-0.03291 1.13642,0.06024 1.96679,0.28125 3.57688,0.952001 4.60211,1.918764 6.27149,5.914062 0.85372,2.043175 1.43394,3.713746 1.28906,3.712891 -1.57005,-0.0093 -7.56423,-4.103574 -9.125,-6.232422 -1.71702,-2.341982 -1.84626,-3.577057 -0.40234,-3.675781 z m -28.79102,1.128906 c -0.27954,-0.03477 -0.54511,-0.01158 -0.78906,0.08203 -1.8897,0.725144 -2.12906,2.947586 -0.6211,5.765625 1.39142,2.59984 5.96485,2.634305 5.96485,0.04492 0,-2.511335 -2.5979,-5.649202 -4.55469,-5.892578 z M 182.75195,30.875 c 0.82541,-3.43e-4 1.24024,0.992413 1.24024,2.976562 0,1.222377 -0.82534,3.242674 -1.83399,4.488282 -1.65592,2.04492 -1.89857,2.096564 -2.5,0.529297 -1.12688,-2.936515 -0.74678,-5.188915 1.16602,-6.919922 0.79075,-0.715624 1.43249,-1.074013 1.92773,-1.074219 z m -33.5957,2.669922 c 0.36634,0.06197 0.75182,0.267449 1.12305,0.638672 0.81716,0.817132 0.64512,1.113281 -0.64649,1.113281 -0.96746,0 -1.50002,0.417716 -1.18359,0.929687 0.31644,0.511996 0.21238,1.15674 -0.23242,1.431641 -0.4448,0.274901 -0.87393,-0.361066 -0.95313,-1.412109 -0.13436,-1.783597 0.79356,-2.887077 1.89258,-2.701172 z m -25.08789,0.751953 c -1.8237,0 -2.07617,0.605108 -2.07617,4.964844 0,4.141263 0.52246,5.558625 3.14453,8.544922 1.72902,1.969198 3.82836,3.447766 4.66601,3.285156 2.0004,-0.388213 3.55604,-5.200879 2.73633,-8.466797 -0.85687,-3.413955 -5.85592,-8.328125 -8.4707,-8.328125 z m 73.68945,2.107422 -0.8164,3.619141 c -0.44888,1.990229 -1.66089,4.749948 -2.69336,6.132812 -2.86345,3.835177 -4.25586,3.806567 -4.25586,-0.08594 0,-3.746343 1.18453,-5.60026 5.13281,-8.039062 z m -44.39843,3.072265 c -1.11172,-0.138883 -2.88418,1.178482 -5.82422,3.888672 -4.75307,4.381121 -6.12421,8.01708 -5.09375,13.509766 0.7255,3.867158 2.89869,4.510444 4.58593,1.357422 0.91759,-1.714493 1.36282,-1.849567 2.62891,-0.798828 1.26974,1.053765 1.83084,0.857768 3.35742,-1.166016 2.33186,-3.091349 2.80929,-5.675768 2.20703,-11.943359 -0.29931,-3.114974 -0.74985,-4.708749 -1.86132,-4.847657 z m -29.26954,0.0098 c 0.2421,-0.07007 0.68666,0.262576 1.36524,1.158203 0.76976,1.015935 1.12952,2.552323 0.79883,3.414063 -0.39724,1.03516 -0.20388,1.320249 0.57031,0.841797 0.72783,-0.449822 1.56018,0.29836 2.19726,1.974609 1.56526,4.116849 0.44351,4.010143 -2.43945,-0.232422 -2.11584,-3.113674 -3.21846,-6.946041 -2.49219,-7.15625 z m 10.96875,0.810547 c -1.46199,0 -1.35012,7.313986 0.13477,8.798828 1.68483,1.684781 5.47186,1.495232 6.16406,-0.308594 1.25359,-3.266704 -2.62178,-8.490234 -6.29883,-8.490234 z m 29.98829,1.5 2.98046,3.5 c 1.92101,2.254593 2.75401,2.788342 2.33985,1.5 -0.37502,-1.166576 0.4558,-0.565642 1.99219,1.443359 1.592,2.082056 2.60475,4.652832 2.5625,6.5 -0.13539,5.886198 -1.13336,6.49914 -4.42969,2.720704 -4.42402,-5.070682 -5.4285,-7.224237 -5.4375,-11.664063 z m -12.7754,0.878906 c 0.10514,-0.10514 0.24469,0.03473 0.4043,0.433594 0.28891,0.72185 0.25269,1.583724 -0.0801,1.916016 -0.3323,0.332266 -0.56683,-0.258359 -0.52343,-1.3125 0.024,-0.582471 0.0941,-0.931969 0.19921,-1.03711 z m -3.68554,2.621094 c 0.19995,0 -0.1489,1.125025 -0.77539,2.5 -0.6265,1.374975 -1.52756,2.5 -2.00196,2.5 -0.47439,0 -0.1253,-1.125025 0.77539,-2.5 0.90093,-1.374975 1.80201,-2.5 2.00196,-2.5 z m -36.09375,0.5 2.25,1.904297 c 1.2375,1.047718 2.25,2.060243 2.25,2.25 0,0.800228 -0.80549,0.210098 -2.59571,-1.904297 z m 71.10547,0.02539 c 0.30589,0.06857 0.53665,0.40052 0.77343,1.017578 0.70335,1.832848 -1.61692,6.885007 -2.67578,5.826172 -1.19527,-1.195248 -0.77623,-5.065163 0.67969,-6.273438 0.53503,-0.44401 0.91677,-0.638886 1.22266,-0.570312 z M 137.5,46.623047 c 0.26111,0.06418 0.59362,0.494343 0.83789,1.130859 0.67618,1.762057 0.0993,2.071974 -0.88672,0.476563 -0.36253,-0.586592 -0.44377,-1.280841 -0.18164,-1.542969 0.0655,-0.06553 0.14343,-0.08585 0.23047,-0.06445 z m -27.76758,0.810547 c 0.44938,0.145453 1.30769,0.977418 2.94531,2.615234 1.88946,1.889409 3.87017,4.580758 4.40235,5.980469 1.37503,3.616514 0.617,3.730131 -1.45703,0.21875 -0.97041,-1.642729 -2.17867,-2.731235 -2.68555,-2.417969 -0.51094,0.315778 -0.62874,-0.195151 -0.26367,-1.146484 0.44676,-1.164203 0.28204,-1.482732 -0.51172,-0.992188 -0.64347,0.397684 -1.16992,0.220363 -1.16992,-0.394531 0,-0.614899 -0.39375,-0.875554 -0.875,-0.578125 -0.48125,0.297429 -0.875,-0.503389 -0.875,-1.78125 0,-1.107702 0.0409,-1.649359 0.49023,-1.503906 z m 98.35938,0.355468 c 2.69493,-0.0041 4.89848,0.220939 4.89648,0.5 -0.0106,1.441422 -4.20541,7.098664 -6.26367,8.447266 -1.29949,0.851431 -4.4565,1.83478 -7.01563,2.185547 l -4.65234,0.638672 0.92578,-3.228516 c 1.12381,-3.918367 2.76894,-6.035156 4.69141,-6.035156 0.79012,0 1.16219,-0.444606 0.82617,-0.988281 -0.3629,-0.587187 0.0862,-0.721212 1.10547,-0.330078 0.94864,0.364004 1.46238,0.246824 1.15039,-0.261719 -0.31361,-0.511199 1.6129,-0.923635 4.33594,-0.927735 z m -57.63282,0.96875 c 0.0603,0.02246 0.12596,0.117188 0.19532,0.289063 0.27741,0.687475 0.27741,1.812525 0,2.5 -0.27741,0.687475 -0.50391,0.124975 -0.50391,-1.25 0,-1.031225 0.12772,-1.606421 0.30859,-1.539063 z m 36.88086,1.044922 c 0.16919,0.118691 0.41518,0.580341 0.73828,1.388672 0.52695,1.317326 0.83487,2.500155 0.68555,2.626953 -0.14931,0.126824 -1.37526,0.570441 -2.72461,0.986329 -2.31094,0.712239 -2.35448,0.657165 -0.75,-0.947266 0.93685,-0.936823 1.73268,-2.459623 1.76758,-3.382813 0.0214,-0.56648 0.11402,-0.790565 0.2832,-0.671875 z m 33.78711,1.494141 c 1.3235,0 1.02866,3.62657 -0.38476,4.732422 -2.2177,1.735099 -5.75,2.193533 -5.75,0.746094 0,-1.374232 4.59599,-5.478516 6.13476,-5.478516 z m -15.92187,0.07422 c -0.38863,-0.01144 -0.96976,0.288242 -1.47852,0.800781 -0.98026,0.987591 -0.8666,1.103207 0.5586,0.560547 0.98622,-0.375531 1.54226,-0.934301 1.23437,-1.242188 -0.077,-0.07697 -0.18491,-0.115327 -0.31445,-0.11914 z M 148.25,51.945312 c 0.0938,-0.0047 0.1553,0.01946 0.18555,0.07422 0.12097,0.21904 -0.25335,0.940921 -1,2.384766 -1.6686,3.226644 -3.44745,3.818832 -3.43555,1.142578 0.004,-0.962475 1.11671,-2.264737 2.4707,-2.892578 0.92196,-0.427522 1.49779,-0.694837 1.7793,-0.708985 z m -24.64648,1.695313 c 0.11953,0.0201 0.25117,0.07127 0.38867,0.15625 0.55,0.339919 1,0.816053 1,1.058594 0,0.242541 -0.45,0.441406 -1,0.441406 -0.55,0 -1,-0.476135 -1,-1.058594 0,-0.43682 0.25273,-0.657944 0.61133,-0.597656 z m -22.23438,2.146484 c 0.40426,0.03356 1.47713,1.201872 2.99024,3.488282 1.46304,2.211105 2.54178,3.984826 2.39648,3.941406 -2.0071,-0.599781 -3.05721,-1.589242 -4.35742,-4.103516 -1.16754,-2.257694 -1.43356,-3.359736 -1.0293,-3.326172 z m 85.63867,1.509766 c 2.47128,0 2.53302,1.193506 0.16992,3.332031 -0.99834,0.903686 -3.36109,1.910369 -5.25,2.236328 l -3.43554,0.59375 3.26562,-3.082031 c 1.79617,-1.694402 4.15867,-3.080078 5.25,-3.080078 z m -73.51562,0.333984 c 0.77661,0 1.17975,0.373698 0.89648,0.832032 -0.28326,0.458308 -0.6864,0.833984 -0.89648,0.833984 -0.21008,0 -0.61323,-0.375676 -0.89649,-0.833984 -0.28327,-0.458334 0.11988,-0.832032 0.89649,-0.832032 z m 53.5,0.666016 c 0.0516,-0.05162 0.45697,0.251112 1.25,0.873047 0.9625,0.754819 1.75,1.542344 1.75,1.75 0,0.823009 -0.82059,0.292651 -2.12696,-1.373047 -0.62193,-0.793003 -0.92466,-1.198384 -0.87304,-1.25 z m 24.64648,1.414063 c 0.25333,-0.106656 0.35352,0.160214 0.35352,0.779296 0,0.901521 0.5625,1.86712 1.25,2.144532 0.8188,0.330368 0.70572,0.530321 -0.32617,0.582031 -0.86662,0.04342 -2.55437,1.121608 -3.75,2.394531 -2.62214,2.791066 -3.13591,11.378046 -0.73633,12.298828 2.09659,0.804512 0.91213,2.87366 -1.69922,2.96875 -1.23142,0.04484 -3.56233,0.452674 -5.17969,0.90625 l -2.93945,0.824219 3.31836,-2.966797 c 2.74291,-2.450937 3.40616,-3.866485 3.81836,-8.15625 0.43995,-4.578577 0.27702,-5.193986 -1.37891,-5.228516 -1.26573,-0.02639 -0.86068,-0.482396 1.24414,-1.398437 1.71693,-0.747225 3.85443,-2.405019 4.75,-3.683594 0.615,-0.878013 1.02207,-1.358212 1.27539,-1.464843 z m -76.32812,0.06641 c 0.51207,0.02671 1.18165,0.415089 1.6914,1.029297 1.00476,1.210619 0.94307,1.490234 -0.32812,1.490234 -1.86688,0 -3.08702,-1.631042 -1.81055,-2.419922 0.12416,-0.07674 0.27658,-0.108513 0.44727,-0.09961 z m 49.99414,1.339844 c 0.51214,-0.111843 1.16714,0.653618 2.11523,2.414062 0.97544,1.811224 1.61658,4.342257 1.42383,5.623047 l -0.35156,2.328125 -2.25,-2.408203 c -2.31113,-2.472816 -2.83854,-5.302324 -1.40821,-7.556641 0.14463,-0.227905 0.29999,-0.363134 0.47071,-0.40039 z m -27.25391,0.179687 c 0.58246,0 0.78133,0.450025 0.44141,1 -0.33992,0.549975 -0.81606,1 -1.0586,1 -0.24254,0 -0.4414,-0.450025 -0.4414,-1 0,-0.549975 0.47613,-1 1.05859,-1 z m -18.2539,0.207031 c 0.17955,0.05289 0.19531,0.605159 0.19531,1.701172 0,2.587542 5.97288,9.091797 8.34961,9.091797 0.85267,0 1.91944,-0.657386 2.36914,-1.460937 0.53881,-0.962788 0.85257,-0.09272 0.92187,2.550781 0.0701,2.673211 0.85403,4.806642 2.34766,6.396484 2.11652,2.252882 2.13038,2.357567 0.24023,1.863281 -2.7369,-0.715754 -3.39275,0.76226 -2.58789,5.839844 0.83449,5.264569 5.84135,10.810547 9.75977,10.810547 2.83346,0 3.61672,-2.395343 1.09961,-3.361328 -0.825,-0.31658 -1.5,-0.140127 -1.5,0.392578 0,0.532715 0.52434,0.96875 1.16601,0.96875 0.64166,0 0.88076,0.285266 0.53125,0.634766 -0.3495,0.349475 -1.88183,-0.180873 -3.40625,-1.179688 l -2.77148,-1.816406 2.99023,-0.820313 c 2.43346,-0.668046 3.2471,-0.449041 4.36328,1.179688 0.75459,1.100847 1.96474,2.001953 2.68946,2.001953 0.80079,0 1.43833,1.470918 1.62695,3.750005 0.2656,3.20877 0.69043,3.79395 2.93945,4.05468 2.33158,0.27028 2.70912,-0.12503 3.33985,-3.5 0.39108,-2.092457 1.16607,-4.355739 1.72265,-5.029294 0.7048,-0.85297 0.37375,-2.543106 -1.08984,-5.566407 -1.1558,-2.387486 -2.10156,-5.343985 -2.10156,-6.570312 0,-2.117295 4.00983,-7.135825 5.70508,-7.140625 0.43749,-0.0012 0.64552,3.148861 0.46289,7 -0.33154,6.991108 -0.32694,7.001953 2.31836,7.001953 2.28794,0 2.5534,0.306843 1.94921,2.25 -0.38476,1.237475 -1.09131,2.400679 -1.56835,2.583984 -0.4773,0.18334 -0.86719,0.970865 -0.86719,1.75 0,0.77917 -0.45,1.416016 -1,1.416016 -0.58333,0 -1,3.333345 -1,8.000005 0,7.769 0.35095,8.61682 3.34375,8.08593 0.4641,-0.0823 0.68906,0.20446 0.5,0.63672 -2.69066,6.15179 -3.97121,10.50354 -3.47266,11.80274 0.93527,2.43703 2.27312,1.02591 6.72852,-7.0918 2.24402,-4.08918 4.29304,-7.4336 4.55078,-7.43359 0.25775,-1e-5 0.20901,0.41769 -0.10742,0.92968 -1.30448,2.11068 1.78442,2.11079 4.03125,0 1.33403,-1.25349 2.45985,-2.08689 2.50195,-1.85351 0.0421,0.23337 0.23413,1.25272 0.42578,2.26562 0.19165,1.0129 0.10384,1.59602 -0.19531,1.29688 -0.76628,-0.76628 -7.30664,7.24978 -7.30664,8.95507 0,0.77297 -0.5625,1.42161 -1.25,1.44141 -2.99668,0.0862 -12.48848,10.96223 -11.27735,12.92188 1.05478,1.70643 3.73857,1.19294 6.28907,-1.20313 1.34487,-1.26367 0.32757,0.81366 -2.32813,4.75 -2.59566,3.8476 -5.50229,8.7961 -6.45703,10.9961 -2.26834,5.22663 -3.33589,9.84098 -2.10156,9.07812 0.52507,-0.32451 1.12072,-0.091 1.32422,0.51953 0.2035,0.6105 1.58481,-1.07456 3.07031,-3.74414 1.48551,-2.66957 3.58968,-5.97876 4.67383,-7.35351 1.75334,-2.22375 1.69493,-1.74056 -0.51367,4.36914 -3.6692,10.14881 -4.7757,20.00151 -3.46094,30.81445 1.02041,8.39207 3.60758,15.81729 6.0332,17.31641 1.19556,0.73865 0.37299,2.49999 -1.16797,2.5 -0.57642,0 -0.81656,-0.60062 -0.53515,-1.33399 0.28141,-0.73334 -0.10124,-1.33398 -0.84961,-1.33398 -0.74837,0 -1.16376,0.32152 -0.92188,0.71289 0.70824,1.14596 -5.161,1.95697 -13.90234,1.92187 l -8.125,-0.0332 5.49023,-1.89453 c 3.01898,-1.04204 6.50648,-3.07581 7.75,-4.52149 2.08281,-2.42116 2.25824,-3.59098 2.24414,-14.82422 -0.0104,-8.24238 -0.32913,-11.70727 -0.98437,-10.69335 -0.81102,1.25472 -0.97158,1.18756 -0.98438,-0.41602 -0.0358,-4.48254 -1.23048,-0.0808 -2.57226,9.48047 -0.79389,5.65686 -2.08748,11.27099 -2.875,12.47265 -0.78752,1.20191 -5.21005,4.05632 -9.82813,6.34375 l -8.39648,4.16016 -17.67188,-0.0898 c -18.497329,-0.0937 -20.028783,-0.50937 -15.843748,-4.29688 2.51385,-2.27505 3.687619,-2.08607 6.101568,0.98242 2.02099,2.56959 2.21886,2.60916 7.64453,1.51953 8.77511,-1.7621 26.61153,-9.71055 30.1289,-13.42578 3.92653,-4.14687 4.61988,-6.52936 8.20899,-28.23046 3.97053,-24.00917 4.56411,-30.99914 3.10547,-36.50391 -3.255,-12.28233 -17.42327,-17.40179 -31.51758,-11.38867 -11.56594,4.93411 -15.18181,5.85805 -17.96094,4.59179 -4.423944,-2.01547 -3.186149,-3.964 2.21094,-3.48047 3.84989,0.34511 5.88667,-0.15168 10.75,-2.62695 3.97091,-2.02119 5.20118,-2.38553 3.63867,-1.07422 -3.19144,2.67834 -0.8007,2.53168 2.86133,-0.17578 3.72434,-2.75371 12.99051,-3.04715 17.67187,-0.55859 1.93053,1.0262 3.30508,1.28397 3.51367,0.6582 0.18848,-0.56543 2.136,0.32997 4.32813,1.98828 4.54257,3.43654 7.01653,3.97216 6.08984,1.32032 -0.38731,-1.10845 0.25534,-0.7806 1.75391,0.89453 1.514,1.69212 2.82998,2.35711 3.6543,1.84765 1.91215,-1.18193 -1.63592,-6.72305 -6.85157,-10.70117 -4.99288,-3.80838 -8.88854,-4.98819 -20.27734,-6.14258 -9.89447,-1.00293 -13.3996,-2.598787 -18.30859,-8.333982 -1.99464,-2.330235 -4.85155,-4.778916 -6.34961,-5.443359 -1.98539,-0.880595 -2.2306,-1.231816 -0.9043,-1.291016 1.29804,-0.05794 1.72796,-0.725008 1.5,-2.330078 -0.27716,-1.951447 -0.91552,-2.25 -4.80664,-2.25 -3.474689,0 -4.561691,0.392953 -4.822266,1.746094 -0.22126,1.148897 0.59195,2.10136 2.375,2.779297 1.491306,0.566965 2.460666,1.281547 2.154296,1.58789 -0.30637,0.306369 -0.0961,1.877359 0.4668,3.492188 1.10508,3.169974 4.15356,5.362091 6.30859,4.535156 0.73651,-0.28263 1.60136,0.168671 1.92188,1.003906 0.88549,2.30749 0.77779,2.379483 -1.98243,1.330078 -3.46271,-1.31657 -11.065629,-1.233144 -13.751949,0.150391 -1.201315,0.618705 -3.196143,2.046675 -4.433593,3.173825 -1.237475,1.12714 -2.250001,1.54087 -2.25,0.91992 0,-1.53676 -6.114354,-2.572727 -10.064454,-1.70507 -1.77132,0.38905 -5.245953,2.57132 -7.720703,4.84765 -3.25352,2.99302 -4.340301,3.5846 -3.925781,2.13868 0.3153,-1.1 1.108649,-4.70001 1.761719,-8.000005 0.653045,-3.299925 2.304297,-9.019796 3.669922,-12.710937 l 2.482421,-6.712891 3.869141,4.896484 c 2.1283,2.692517 4.670163,5.362191 5.648438,5.931641 1.40878,0.820021 0.791377,1.040373 -2.970703,1.064453 -3.880585,0.02484 -4.75,0.356689 -4.75,1.814453 0,3.939938 11.292193,7.224292 12.652343,3.679688 0.32444,-0.84548 -0.212794,-2.4243 -1.193359,-3.507813 -1.73912,-1.921748 -1.711209,-1.958913 1.128906,-1.511719 13.845082,2.180041 14.457752,1.771835 9.097656,-6.083984 C 92.129829,79.989602 88.16577,78.050067 80.25,78.617188 L 74.007812,79.064453 76.75,74.179688 c 1.50839,-2.687027 3.466024,-5.845731 4.349609,-7.019532 1.587355,-2.1087 1.648824,-2.071123 5.183594,3.25 3.528695,5.311957 7.998056,8.886719 11.113281,8.886719 2.08493,0 2.027688,-1.825379 -0.138672,-4.421875 -0.953875,-1.143283 -0.37414,-0.848407 1.28711,0.654297 3.252048,2.941576 9.447268,4.83362 9.447268,2.884765 0,-0.814877 0.54988,-0.791645 1.95508,0.08594 1.07474,0.671316 2.27018,0.905604 2.65625,0.519531 1.09753,-1.097751 -2.52792,-8.255671 -5.98438,-11.814453 -2.33598,-2.40511 -2.57508,-2.927709 -0.94336,-2.064453 3.36969,1.782724 5.04241,1.387903 5.73047,-1.353516 0.61663,-2.456784 0.68273,-2.472707 3.22852,-0.804687 2.47173,1.61965 2.66759,1.611104 3.97851,-0.181641 0.65959,-0.902003 1.0038,-1.349761 1.1836,-1.296875 z m 109.93554,1.054688 c 0.16746,-0.08375 0.25977,-0.08961 0.25977,0.002 0,0.361466 -1.0125,1.604417 -2.25,2.759765 -1.92297,1.795361 -1.97178,1.992517 -0.33594,1.367188 1.40726,-0.537943 1.70688,-0.394144 1.12891,0.541016 -0.96438,1.560339 -7.33218,4.316776 -8.41993,3.644531 -0.43412,-0.268303 -0.78906,0.11351 -0.78906,0.849609 0,1.038179 0.69053,1.121492 3.08203,0.369141 1.69583,-0.533462 3.75899,-0.992701 4.58399,-1.019531 2.14125,-0.06962 4.16954,-1.891209 3.64062,-3.269532 -0.24759,-0.645191 0.13371,-1.171875 0.84571,-1.171875 1.95582,0 -0.21641,5.447191 -2.85157,7.150391 -2.86379,1.851137 -6.45232,2.422522 -10.38867,1.652344 l -3.2539,-0.636719 4.07226,-4.5 c 2.23908,-2.47495 3.78786,-3.937475 3.44336,-3.25 -1.11466,2.224444 0.81626,1.328011 4.19531,-1.947266 1.36027,-1.318369 2.53474,-2.289796 3.03711,-2.541015 z m -121.1289,0.08203 c 0.11953,0.0201 0.25117,0.07127 0.38867,0.15625 0.55,0.339919 1,0.816053 1,1.058594 0,0.242541 -0.45,0.441406 -1,0.441406 -0.55,0 -1,-0.476135 -1,-1.058594 0,-0.43682 0.25273,-0.657944 0.61133,-0.597656 z m -18.693364,1.779297 c 0.347396,0.01431 0.644397,0.107316 0.810547,0.273437 0.33229,0.332292 -0.258365,0.566858 -1.3125,0.523438 -1.164925,-0.04798 -1.401245,-0.28429 -0.603515,-0.603516 0.36091,-0.144434 0.758096,-0.207669 1.105468,-0.193359 z m 107.183594,0.933594 c 0.20619,0.02089 0.35801,0.06895 0.4375,0.148437 1.01673,1.016705 -2.29573,7.594759 -4.38867,8.714844 -2.68351,1.43612 -3.10131,1.373819 -3.84961,-0.576172 -0.91607,-2.387185 1.81323,-6.660613 4.96094,-7.767578 1.11357,-0.39162 2.22128,-0.5822 2.83984,-0.519531 z m 11.27344,0.09375 c 0.87237,-0.0734 1.9158,-0.04376 3.22461,0.04102 l 4.75586,0.308594 -3.54688,3.75 c -2.99912,3.172056 -4.1894,3.75 -7.73242,3.75 h -4.18945 l 1.80664,-3.078125 c 1.99642,-3.400632 3.06451,-4.551294 5.68164,-4.771484 z m -94.36328,1.013672 c -0.31526,-0.01123 -0.54248,0.03271 -0.6543,0.144531 -1.07788,1.077854 0.71745,7.782769 2.24023,8.367187 2.2063,0.846612 2.88164,-0.385939 1.29493,-2.363281 -0.97926,-1.220159 -0.44883,-1.073226 1.78711,0.494141 1.74847,1.225803 4.1484,3.795828 5.33203,5.710937 2.19222,3.547422 3.40509,4.233724 4.46093,2.525391 0.72437,-1.172032 -1.96648,-7.827008 -4.13281,-10.220703 -1.59148,-1.758541 -8.1216,-4.579583 -10.32812,-4.658203 z m -25.824222,0.845703 c 0.03671,-0.0077 0.07691,0.01693 0.11914,0.07422 0.16891,0.229167 1.781724,2.328566 3.583984,4.666016 1.802275,2.33745 3.061091,4.25 2.796876,4.25 -0.91763,0 -6.6875,-7.075843 -6.6875,-8.201172 -10e-7,-0.466876 0.07737,-0.766044 0.1875,-0.789062 z m 7.3125,0.02148 c 0.549975,0 1.675,0.435619 2.5,0.96875 0.824975,0.533131 1.049975,0.96875 0.5,0.96875 -0.55,0 -1.675025,-0.435619 -2.5,-0.96875 -0.825,-0.533131 -1.05,-0.96875 -0.5,-0.96875 z m 54.863282,1.478516 c 0.14536,0.111559 0.35313,0.604759 0.63672,1.490234 0.53376,1.666617 0.83389,1.916642 0.90039,0.75 0.0548,-0.962475 0.56541,-1.75 1.13476,-1.75 0.70104,0 0.7114,0.603809 0.0352,1.869141 -0.54996,1.027659 -0.76099,2.106196 -0.46875,2.398437 0.29225,0.292241 0.0872,0.805495 -0.45508,1.140625 -0.54225,0.335129 -1.69731,-0.101387 -2.5664,-0.970703 -1.73939,-1.739342 -2.16989,-3.920032 -0.58008,-2.9375 0.55,0.339919 1.04481,-0.196472 1.09961,-1.191406 0.0353,-0.640754 0.11831,-0.910388 0.26367,-0.798828 z m 33.12305,0.490234 c 1.15512,0 -0.83812,5.598774 -2.74024,7.695313 -2.33148,2.569768 -7.74609,4.77475 -7.74609,3.154296 0,-3.030096 3.63671,-8.217461 6.64062,-9.472656 1.81256,-0.75731 3.54257,-1.376953 3.84571,-1.376953 z m -85.878911,2.097656 c 0.19973,0.02609 0.468549,0.101176 0.810547,0.232422 0.960185,0.368467 2.537174,0.669922 3.503904,0.669922 0.96674,0 2.26999,1.125025 2.89649,2.5 1.36616,2.998339 0.69519,3.109177 -3.45899,0.576172 -3.208733,-1.956618 -5.150013,-4.161144 -3.751951,-3.978516 z m 39.892581,1.236328 c 0.72017,0 1.08024,0.598698 0.79883,1.332032 -0.28141,0.733308 -0.64152,1.333984 -0.79883,1.333984 -0.15731,0 -0.51547,-0.600676 -0.79688,-1.333984 -0.28141,-0.733334 0.0768,-1.332032 0.79688,-1.332032 z m 102.95703,0.753907 c 0.35569,-0.02117 0.70118,-0.0026 1.02734,0.0625 1.63887,0.32687 1.6326,0.483561 -0.11718,2.511718 -1.02654,1.189682 -2.87969,2.458504 -4.11719,2.81836 -1.77296,0.51554 -2.25,0.251749 -2.25,-1.244141 0,-1.893541 2.96717,-4.000251 5.45703,-4.148437 z m -42.89844,0.912109 c 0.24254,0 0.44141,0.450025 0.44141,1 0,0.549975 -0.47614,1 -1.0586,1 -0.58246,0 -0.78132,-0.450025 -0.4414,-1 0.33992,-0.549975 0.81605,-1 1.05859,-1 z m 13.25391,0.625 c 0.51226,0.01069 0.85351,0.369783 0.85351,0.970703 0,0.772537 -0.0362,1.397072 -0.082,1.388672 -0.0458,-0.0084 -0.68435,-0.396315 -1.41797,-0.861328 -1.09773,-0.695801 -1.08252,-0.941132 0.084,-1.388672 0.2021,-0.07755 0.39174,-0.112939 0.5625,-0.109375 z m -76.3125,1.220703 5.25,4.234375 c 2.88725,2.328168 5.25,4.387267 5.25,4.576172 0,0.741153 -0.73044,0.18235 -5.52735,-4.232422 z m 68.66601,0.154297 h 3.10352 l -2.63477,2.072266 c -1.52066,1.196099 -2.63476,3.073379 -2.63476,4.439453 0,1.968819 0.57747,2.419578 3.42969,2.677734 3.01036,0.272492 3.27772,0.51376 2.19531,1.982422 -1.057,1.434194 -1.3665,1.467692 -2.17774,0.226562 -0.52041,-0.796172 -2.97226,-1.838364 -5.44726,-2.314453 -2.475,-0.476064 -3.72326,-0.914349 -2.77344,-0.974609 2.18911,-0.138888 5.17841,-4.609731 4.41406,-6.601562 -0.43901,-1.144007 0.17078,-1.507813 2.52539,-1.507813 z m 12.77149,1.240234 c 0.19233,0.01261 0.40963,0.06221 0.64453,0.152344 0.86998,0.333844 2.91079,0.607422 4.53516,0.607422 2.64327,0 2.84087,0.209895 1.88281,2 -0.8135,1.519997 -2.09458,2 -5.33594,2 -2.34565,0 -4.90996,0.562525 -5.69922,1.25 -0.78926,0.687475 -0.42848,0.09599 0.80078,-1.314453 1.22926,-1.410423 2.23438,-3.146551 2.23438,-3.857422 0,-0.57581 0.36049,-0.875732 0.9375,-0.837891 z m -52.48242,0.998047 c 0.21928,0.0944 0.55538,0.514602 1.07617,1.203125 0.80751,1.067596 1.46875,2.530146 1.46875,3.25 0,0.719878 -0.675,1.308594 -1.5,1.308594 -1.03216,0 -1.49065,-1.013693 -1.46875,-3.25 0.0188,-1.921322 0.0584,-2.669056 0.42383,-2.511719 z m 33.03906,0.761719 c 0.89361,0 1.37284,0.404547 1.0664,0.900391 -0.82534,1.33577 -6.56054,3.155885 -6.56054,2.082031 0,-1.158051 3.36162,-2.982422 5.49414,-2.982422 z m 12.20703,0 c 2.74984,0 2.9192,0.808106 0.54883,2.607422 -1.93638,1.469873 -5.25,1.843303 -5.25,0.591797 0,-1.548621 2.4266,-3.199219 4.70117,-3.199219 z M 82.992188,80.425781 c 0.4531,0 0.90625,0.07028 1.25,0.208985 0.687475,0.277388 0.12495,0.503906 -1.25,0.503906 -1.374975,0 -1.9375,-0.226518 -1.25,-0.503906 0.343725,-0.138706 0.796875,-0.208985 1.25,-0.208985 z m 27.710932,0.871094 c -2.67174,0 -2.86924,0.23188 -2.25781,2.667969 0.7722,3.076602 3.54688,7.394717 3.54688,5.519531 0,-0.971643 0.48269,-0.999869 2.12109,-0.123047 1.49048,0.797649 1.91912,0.80801 1.44141,0.03516 -0.38129,-0.616914 -0.008,-1.099609 0.85156,-1.099609 0.84282,0 4.3567,2.684073 7.80859,5.964844 5.31081,5.047171 9.77735,7.556471 9.77735,5.49414 0,-1.65205 -4.65348,-9.42019 -7.33008,-12.236328 -3.20742,-3.374617 -10.51111,-6.222656 -15.95899,-6.222656 z m 116.84766,0 c 1.40746,0 2.31452,0.39532 2.01563,0.878906 -0.99854,1.615643 -4.57422,2.02791 -4.57422,0.527344 0,-0.842096 1.02628,-1.40625 2.55859,-1.40625 z m -44.05273,3.115234 c 1.65706,0.0058 1.46403,1.147214 -0.0606,4.357422 -1.22616,2.583886 -3.17022,4.367716 -6.72656,6.169922 l -5.00391,2.535156 0.66016,-3.302734 c 0.82741,-4.136976 4.99296,-8.577412 8.83789,-9.421875 0.98261,-0.215817 1.74061,-0.33982 2.29297,-0.337891 z M 80.246094,84.947266 c 1.686637,-0.180831 5.952394,0.477415 8.693359,1.519531 2.01486,0.766041 2.208476,1.119107 1.019531,1.871094 -2.0402,1.290339 -3.224163,1.185163 -2.361328,-0.210938 0.49057,-0.793733 0.172008,-0.95845 -0.992187,-0.511719 -1.156395,0.443759 -1.48251,0.280714 -1,-0.5 0.475315,-0.769095 0.165506,-0.948956 -0.917969,-0.533203 -0.897585,0.344446 -1.901812,0.189248 -2.232422,-0.345703 -0.33062,-0.534929 -0.988925,-0.732396 -1.46289,-0.439453 -0.47399,0.292943 -1.114216,0.124752 -1.421876,-0.373047 -0.16304,-0.263843 0.113553,-0.416285 0.675782,-0.476562 z m 137.646486,0.349609 c 2.44969,0 2.4046,-0.171153 1.02539,3.785156 -0.59116,1.695756 -2.06122,3.72844 -3.26563,4.517578 -3.00094,1.966407 -7.86719,2.88189 -9.55468,1.796875 -1.07915,-0.693755 -0.67548,-1.269548 1.77929,-2.539062 1.74624,-0.90299 3.68,-1.329698 4.29883,-0.947266 0.70861,0.437945 0.84626,0.243814 0.3711,-0.52539 -0.50208,-0.812379 -0.17275,-1.115063 0.98242,-0.904297 1.05383,0.192278 1.84644,-0.38997 2.01758,-1.480469 0.24627,-1.570849 -0.28516,-1.466496 -4.22071,0.839844 -3.95737,2.319243 -4.37564,2.401432 -3.45312,0.677734 1.2016,-2.245153 6.91293,-5.220703 10.01953,-5.220703 z m 18.58203,0.21875 c 2.43498,-0.143177 4.51758,0.0571 4.51758,0.703125 0,1.625624 -6.92032,7.193732 -10.0586,8.09375 -3.78577,1.085795 -6.9414,1.282879 -6.9414,0.433594 0,-1.957397 3.48915,-6.651425 5.85156,-7.873047 1.40956,-0.728886 4.19588,-1.214245 6.63086,-1.357422 z m -88.07617,0.78125 c 2.63432,0 4.64967,5.321494 3.94922,10.431641 -0.80478,5.871324 -2.27169,6.001014 -1.61133,0.142578 0.3927,-3.483916 0.0327,-5.078834 -1.69141,-7.5 -1.77393,-2.491211 -1.89605,-3.074219 -0.64648,-3.074219 z m 75.1582,0 c 1.0897,0 0.95978,0.730936 -0.57617,3.25 -1.08986,1.78745 -1.98238,4.48755 -1.98438,6 -0.004,2.872505 -0.34337,3.066382 -3.30273,1.898437 -1.64677,-0.649905 -1.58678,-0.907147 0.69922,-3.054687 1.37315,-1.289984 2.77972,-3.63787 3.12695,-5.21875 0.34723,-1.58088 1.26389,-2.875 2.03711,-2.875 z M 197.375,87.724609 c 0.37729,0.01826 0.74773,0.06842 1.09766,0.15625 2.86655,0.71952 3.26504,1.915363 0.9375,2.808594 -2.39271,0.918146 -6.2253,0.728381 -6.88672,-0.341797 -0.80205,-1.297697 2.2105,-2.750838 4.85156,-2.623047 z m 32.10547,1.046875 c -0.1678,-0.07008 -0.49059,-0.02817 -0.93555,0.142578 -0.85357,0.327544 -1.55273,0.774079 -1.55273,0.990235 0,0.809888 1.90493,0.354476 2.49219,-0.595703 0.17492,-0.28343 0.16605,-0.467027 -0.004,-0.53711 z m -94.39844,0.56836 c 0.0111,-0.07183 0.31194,0.175351 0.9082,0.707031 1.77049,1.578748 4.36799,1.651877 3.40625,0.0957 -0.44563,-0.721015 -0.27418,-0.883563 0.45704,-0.43164 0.64374,0.397959 0.91214,1.142325 0.5957,1.654296 -0.9138,1.478547 -3.09663,1.085235 -4.53711,-0.818359 -0.56326,-0.744362 -0.84123,-1.135202 -0.83008,-1.207031 z m -43.171874,0.08008 c 0.347396,0.01431 0.644397,0.107316 0.810547,0.273437 0.33229,0.332292 -0.258365,0.566858 -1.3125,0.523438 -1.164925,-0.04798 -1.401245,-0.28429 -0.603515,-0.603516 0.36091,-0.144434 0.758096,-0.207669 1.105468,-0.193359 z m 2.570313,1.351562 c 0.167802,0.07008 0.17922,0.25368 0.0039,0.53711 -0.33602,0.543675 -1.033266,0.988281 -1.550781,0.988281 -1.438405,0 -1.121042,-0.718022 0.611328,-1.382813 0.444915,-0.170723 0.767744,-0.21266 0.935547,-0.142578 z m 109.289061,0.806641 c 0.25498,0.01751 -0.16822,0.493828 -1.0293,1.445313 -2.50632,2.769652 -2.16955,4.106478 1.26368,4.996093 2.78099,0.72069 2.86726,0.870231 1.12695,1.957031 -1.60444,1.001988 -2.35155,0.696138 -5.02344,-2.060546 l -3.13867,-3.238282 3.75977,-1.792968 c 1.85229,-0.883389 2.78603,-1.324148 3.04101,-1.306641 z m -97.83594,1.71875 c 0.58246,0 1.0586,0.450025 1.0586,1 0,0.549975 -0.19887,1 -0.44141,1 -0.24254,0 -0.71867,-0.450025 -1.05859,-1 -0.33992,-0.549975 -0.14106,-1 0.4414,-1 z m 85.5586,2.03125 c 1.6826,0 1.76195,0.165323 0.5,1.048828 -1.18722,0.831185 -1.04754,0.924858 0.66601,0.445313 1.55481,-0.43514 2.61172,0.03112 3.75,1.65625 0.87176,1.24455 1.58399,2.613384 1.58399,3.041014 0,0.42762 -1.49729,0.77734 -3.32617,0.77735 -4.15123,0 -9.09361,-4.489614 -6.64649,-6.037114 0.81059,-0.51261 2.37266,-0.931641 3.47266,-0.931641 z m 54.71484,0.394531 c 1.39564,-0.291919 -3.24792,7.148974 -5.70508,8.890624 -3.05411,2.16496 -9.50976,3.44045 -9.50976,1.87891 0,-4.80908 6.1297,-10.362823 11.02929,-9.994143 1.39074,0.10465 3.11,-0.171143 3.82227,-0.611328 0.14916,-0.09219 0.27024,-0.1446 0.36328,-0.164063 z M 82.242188,96.396484 c 1.51245,-0.05482 2.75,0.350416 2.75,0.900391 0,0.549975 -0.112525,0.955211 -0.25,0.900391 -0.1375,-0.05482 -1.37505,-0.460041 -2.75,-0.900391 l -2.5,-0.800781 z m 150.076172,0.466797 c 0.32352,0.113238 0.0461,0.512158 -0.61133,1.273438 -0.7886,0.913125 -1.84144,2.425481 -2.33789,3.361331 -0.83222,1.56884 -1.17265,1.53132 -4.36523,-0.49024 -2.93612,-1.858922 -3.16136,-2.24611 -1.48633,-2.53906 1.08655,-0.19003 3.69574,-0.716852 5.79883,-1.169922 1.7531,-0.3777 2.67843,-0.548784 3.00195,-0.435547 z m -17.625,3.437499 c 3.33667,0.003 10.29883,3.04278 10.29883,4.4961 0,0.29092 -1.4625,1.4199 -3.25,2.50976 -1.7875,1.08986 -4.375,1.95051 -5.75,1.91211 -3.72182,-0.10407 -11,-3.14997 -11,-4.60352 0,-1.91213 5.41179,-4.31845 9.70117,-4.31445 z m -97.51953,1.91211 c 1.0045,-6e-4 2.45555,0.26178 4.73437,0.78711 3.07079,0.70781 6.82149,1.52274 8.33399,1.81055 4.36803,0.83125 3.19419,2.00214 -2,1.99414 v -0.002 c -2.6125,-0.004 -6.1654,0.31015 -7.89453,0.69727 -2.78501,0.62343 -3.08538,0.4806 -2.63282,-1.25 0.39025,-1.49232 0.002,-1.95312 -1.64453,-1.95312 -1.71763,0 -1.91206,-0.26434 -0.95117,-1.29297 0.49235,-0.52694 1.05019,-0.79042 2.05469,-0.79102 z m -21.097658,0.63477 c 0.682143,-0.0149 1.519293,0.1141 2.439453,0.38867 2.941135,0.87756 2.931015,0.88961 -0.972656,0.97461 -2.5629,0.0558 -3.608498,-0.25697 -2.976563,-0.88867 0.301145,-0.30117 0.827623,-0.45976 1.509766,-0.47461 z m 65.716798,0.3457 c 0.21137,-0.0586 0.47376,0.0441 0.77539,0.3457 0.31639,0.31639 0.4029,1.85324 0.19336,3.41602 l -0.38086,2.8418 L 161.56641,107 c -0.58531,-2.00998 -0.40757,-3.63087 0.22656,-3.80664 z m -56.79102,0.21484 c 0.37431,0.009 0.75413,0.25835 1.24024,0.74805 1.00272,1.01013 0.85435,1.12976 -0.75,0.60547 -1.61398,-0.52743 -1.71048,-0.44672 -0.5,0.41797 0.825,0.58934 2.2875,0.8249 3.25,0.52539 0.9625,-0.29945 1.75,-0.30491 1.75,-0.0117 0,1.6701 -4.21,2.10893 -10.000002,1.04297 -6.39593,-1.1775 -6.426369,-1.19823 -1.949219,-1.31836 2.502501,-0.0671 5.090001,-0.66227 5.750001,-1.32227 0.46666,-0.46663 0.83468,-0.69655 1.20898,-0.6875 z m -25.365231,1.24414 c 0.282779,-0.0367 0.907709,0.0514 1.855469,0.26758 1.64995,0.37639 3.322198,1.17844 3.714843,1.78125 0.39268,0.60282 2.19273,1.14081 4,1.19531 1.80728,0.0545 5.310207,0.20722 7.785157,0.33985 l 4.500002,0.24023 -3.205081,0.92774 c -1.7628,0.50973 -3.78785,1.71201 -4.5,2.67187 -0.712125,0.95987 -3.442774,2.30218 -6.068359,2.98438 -2.625585,0.68221 -6.67571,2.42276 -9,3.86718 -2.32429,1.44466 -6.364137,4.91137 -8.976562,7.70313 l -4.75,5.07617 v -9.70508 c -10e-7,-6.16937 0.386731,-9.70508 1.060546,-9.70507 0.583,0 3.121563,-1.57525 5.642578,-3.5 2.52105,-1.925 5.056808,-3.5 5.632813,-3.5 0.576005,-1e-5 0.173064,0.66888 -0.894531,1.48632 -1.76948,1.35488 -1.646178,1.38802 1.404297,0.36914 2.476235,-0.82708 2.996295,-1.35259 2,-2.01757 -0.425345,-0.284 -0.483976,-0.44573 -0.201172,-0.48243 z m 92.355471,1.64454 c 0.0516,0.0516 -0.25111,0.45697 -0.87305,1.25 -0.75485,0.96225 -1.54235,1.74999 -1.75,1.75 -0.82304,-1e-5 -0.2927,-0.82254 1.37305,-2.12891 0.79303,-0.62194 1.19838,-0.92271 1.25,-0.87109 z m -59.45508,0.125 c 0.21044,-0.001 0.41144,0.0258 0.5918,0.0859 0.74895,0.24965 0.29531,0.70303 -1.05664,1.05664 -1.66335,0.43497 -2.05262,0.30457 -1.31055,-0.4375 0.43582,-0.43583 1.14406,-0.70115 1.77539,-0.70507 z m 78.47461,0.41796 c 1.43597,0.0971 3.22462,0.51826 3.89648,1.09766 0.22916,0.19762 -1.00834,0.35937 -2.75,0.35938 -1.74167,0 -3.16601,-0.45906 -3.16601,-1.01954 0,-0.22421 0.29448,-0.35925 0.75586,-0.41992 0.34602,-0.0455 0.78501,-0.05 1.26367,-0.0176 z m 56.93359,0.14649 c 1.04498,0.0318 2.14565,0.26816 3.4336,0.71094 5.02018,1.72569 5.14353,2.11011 1.41601,4.4082 -3.75575,2.31565 -7.60401,3.31849 -9.80273,2.55469 -0.825,-0.28659 -2.175,-0.74529 -3,-1.01758 -1.20844,-0.39884 -1.07138,-0.84549 0.70703,-2.29688 1.21411,-0.99086 1.97891,-2.0289 1.69922,-2.30859 -0.27969,-0.27969 0.82147,-0.97231 2.44726,-1.53906 1.06453,-0.3711 2.05464,-0.54356 3.09961,-0.51172 z m -49.48633,4.36523 c 0.81145,0.11668 1.98619,0.78838 3.03321,1.94532 0.99549,1.09975 1.62703,1.93818 1.40429,1.86328 -0.22275,-0.0749 -1.37931,-0.32634 -2.57031,-0.5586 -1.191,-0.23226 -2.41451,-1.07044 -2.71875,-1.86328 -0.40874,-1.06516 0.0401,-1.50339 0.85156,-1.38672 z M 109.58594,111.5 c 0.15885,0.0624 -0.0468,0.26184 -0.59375,0.60742 -2.48744,1.5718 -5.31135,1.9414 -9.000002,1.17774 l -3.5,-0.72461 4.500002,-0.14649 c 2.475,-0.0799 5.625,-0.39584 7,-0.70117 0.91151,-0.20241 1.4349,-0.27527 1.59375,-0.21289 z m 120.78906,2.79688 c 0.825,0 1.77727,0.45 2.11719,1 0.33992,0.54975 -0.0559,0.99999 -0.88086,1 -0.825,-1e-5 -1.77922,-0.45025 -2.11914,-1 -0.33992,-0.55 0.0578,-1.00001 0.88281,-1 z m -25.06641,1.07812 c 0.99866,-0.0434 2.57366,0.30984 3.5,0.78516 2.36363,1.21281 10.29428,2.12471 9.66797,1.11132 -0.86181,-1.39419 1.6074,-2.28532 2.85352,-1.02929 0.88725,0.8943 0.68807,1.00333 -0.83789,0.45508 -1.1,-0.39526 -1.66553,-0.35307 -1.25781,0.0977 0.40748,0.44953 0.23952,1.42206 -0.37305,2.16016 -0.61257,0.73811 -2.07204,1.33512 -3.24219,1.32812 -2.70151,-0.0163 -12.75443,-4.80203 -10.31055,-4.9082 z m -15.98047,1.88867 2.33204,2.19141 c 1.61962,1.52179 2.32147,3.28208 2.29687,5.76562 -0.0195,1.96663 -0.64613,4.67944 -1.39258,6.02735 l -1.35742,2.44922 -2.10351,-3.44922 c -2.38242,-3.90803 -2.63587,-6.70528 -0.94336,-10.41993 z m -59.71484,0.46875 c 1.67365,-0.23982 2.34588,1.56379 2.36328,5.79883 0.0111,2.71962 -0.76981,4.61436 -2.87695,6.97266 l -2.89453,3.23828 -1.23633,-4.13281 c -1.55136,-5.17798 -0.6845,-8.80224 2.625,-10.97071 0.7933,-0.51979 1.46165,-0.82631 2.01953,-0.90625 z M 92.130859,120.25 c -1.060382,-0.033 -2.733761,0.36117 -5.265625,1.06445 -4.864385,1.35121 -8.35198,5.05371 -9.86914,10.47266 -0.68866,2.45966 -1.872481,4.98549 -2.628906,5.61328 -0.75645,0.6278 -1.375,1.76188 -1.375,2.51953 -10e-7,2.05011 6.689763,1.70094 11.792968,-0.61523 4.70362,-2.1348 7.391638,-6.6971 8.695313,-14.75781 0.48465,-2.99682 0.417711,-4.24191 -1.34961,-4.29688 z m 154.539061,0.0781 c 1.2929,-0.0189 3.20961,1.28847 4.71875,3.2168 2.28844,2.92408 2.37019,3.31564 0.82227,3.92969 -0.94557,0.37511 -2.16875,0.69434 -2.71875,0.71094 -2.14419,0.0649 -6.17369,-2.87661 -7.28711,-5.32032 -1.31504,-2.88593 -0.63458,-3.20258 2.22851,-1.03711 1.06762,0.80751 2.39141,1.46876 2.94141,1.46876 0.55,0 0.12621,-0.66125 -0.94141,-1.46876 -1.89839,-1.43585 -1.89352,-1.4689 0.23633,-1.5 z m -46.86523,1.96876 c 1.52987,0 5.16276,4.05491 5.75781,6.42578 0.32721,1.30359 0.44675,3.26026 0.26367,4.34765 -0.2662,1.58103 -0.77057,1.81286 -2.51758,1.15821 -1.20154,-0.45043 -2.66404,-1.71569 -3.25,-2.81055 -1.24733,-2.33067 -1.43636,-9.1211 -0.2539,-9.12109 z m 29.07617,0.14843 c 0.55476,0.16337 1.49638,0.90289 2.40625,1.9375 1.21316,1.37948 1.80337,1.91426 1.3125,1.1875 -1.29419,-1.91611 -0.10336,-2.61033 2.28516,-1.33203 2.43959,1.30576 3.75965,3.58141 5.57421,9.61133 1.20606,4.00742 1.17471,4.44636 -0.31445,4.44336 -1.90554,-0.004 -7.11332,-3.01122 -8.80469,-5.08399 -1.49373,-1.83063 -3.66131,-9.93268 -2.86914,-10.7246 0.0839,-0.0839 0.22524,-0.0935 0.41016,-0.0391 z M 89.431641,123.4043 c 1.295412,-0.13547 1.42521,0.68571 0.998047,2.64258 -1.121065,5.1352 -2.634693,8.14836 -4.789063,9.53515 -1.181855,0.76077 -3.540986,1.86032 -5.244141,2.44336 l -3.097656,1.06055 1.373047,-4.14453 c 2.27112,-6.85191 3.664168,-8.88779 7.039063,-10.29883 1.747071,-0.73046 2.943427,-1.157 3.720703,-1.23828 z m 130.316409,0.0996 c -0.99338,-0.20197 -4.29186,5.79733 -10.59961,19.2832 -5.03611,10.76667 -9.15625,20.01114 -9.15625,20.54297 0,0.53182 -0.45,0.9668 -1,0.9668 -1.8236,-10e-6 -1.03503,4.56216 1.3457,7.78906 3.44835,4.67372 7.38021,7.44009 12.55859,8.83594 6.09127,1.64159 7.90653,1.6366 13.48243,-0.041 6.21771,-1.87133 11.15323,-5.76045 13.73632,-10.82422 1.81993,-3.56735 1.90418,-4.2671 0.63477,-5.19531 -0.80694,-0.59005 -1.76783,-2.02328 -2.13672,-3.18555 -1.98149,-6.24289 -17.63797,-37.92235 -18.86523,-38.17187 z m -120.927738,0.008 c -0.981465,-0.19549 -4.378355,6.09166 -10.80664,20 -5.156475,11.15656 -9.746699,20.43581 -10.199219,20.61914 -1.90724,0.77271 -0.575011,5.09516 2.777344,9.01172 3.75998,4.39256 7.827446,6.98372 12.900391,8.21875 4.657395,1.13387 6.811472,1.04695 11.886722,-0.48047 6.13474,-1.84636 11.14566,-5.74525 13.62304,-10.60156 2.38214,-4.66938 2.48929,-5.98242 0.49024,-5.98242 -0.825,0 -1.51441,-0.56275 -1.53321,-1.25 -0.0729,-2.67167 -17.78804,-39.26615 -19.138668,-39.53516 z m 19.011718,0.46289 c 0.97699,0.10302 1.36133,1.73373 1.36133,5.09766 0,2.55255 -0.66197,4.1793 -2.21094,5.43359 -3.29648,2.66952 -3.99023,2.22974 -3.99023,-2.53516 0,-3.27002 0.58426,-4.87355 2.39453,-6.57422 1.05912,-0.99475 1.85912,-1.48368 2.44531,-1.42187 z m 78.43945,1.70117 c 0.10514,-0.10514 0.24469,0.0347 0.4043,0.4336 0.28891,0.72162 0.25269,1.58371 -0.0801,1.91601 -0.3323,0.33229 -0.56683,-0.25834 -0.52343,-1.3125 0.024,-0.58247 0.0941,-0.93197 0.19921,-1.03711 z m 34.22071,1.1211 2.42383,2.75 c 1.33313,1.51225 2.57088,2.75 2.75,2.75 0.78403,0 0.14621,-0.81029 -2.42383,-3.07618 z m -10.99414,0.79492 c 0.0389,-0.11249 0.54929,0.56251 1.13476,1.5 0.88546,1.41784 0.68285,1.70507 -1.20312,1.70508 -1.85183,0 -2.05933,-0.27512 -1.13477,-1.5 0.6226,-0.825 1.16413,-1.59259 1.20313,-1.70508 z m -121.289066,1.24804 c 0.572066,-0.0104 1.28331,0.3526 1.792966,0.9668 1.36965,1.65033 1.31636,1.67251 -1.443356,0.5918 -1.170315,-0.45831 -1.511077,-1.01759 -0.863282,-1.41797 0.147168,-0.091 0.323008,-0.13717 0.513672,-0.14063 z m -1.5625,7.54102 c 0.18996,-0.22916 0.345703,5.95859 0.345704,13.75 v 14.16602 h -6.5 c -3.574925,0 -6.5,-0.19536 -6.5,-0.4336 -10e-7,-0.50078 12.135621,-26.85667 12.654296,-27.48242 z m 125.390626,0.41602 1.85547,4 c 1.02066,2.19975 3.90956,8.3875 6.41992,13.75 l 4.56445,9.75 h -6.44336 -6.4414 l 0.0215,-13.75 z m -5.15625,1 0.0547,13.25 0.0566,13.25 h -6.06641 c -7.19837,-10e-6 -7.24252,1.1247 0.57227,-15.23438 z m 2.72461,0.34765 c 0.0403,0.14824 0.0845,0.76797 0.13086,1.90235 0.18529,4.53725 0.18529,11.9625 0,16.5 -0.1853,4.53725 -0.33594,0.82475 -0.33594,-8.25 0,-6.80625 0.0843,-10.59707 0.20508,-10.15235 z m -118.16602,0.26563 c 0.24561,0.24562 3.14782,6.17021 6.44922,13.16601 l 6.00195,12.72071 h -6.44921 -6.44922 v -13.16602 c 0,-7.24141 0.20164,-12.96631 0.44726,-12.7207 z m 56.26172,15.03711 c 0.0482,0.0738 -0.22774,0.67097 -0.78906,1.84961 -1.45781,3.06078 -1.91992,3.62796 -1.91992,2.35742 0,-0.53655 0.69934,-1.8484 1.55469,-2.91602 0.73294,-0.91515 1.10612,-1.36486 1.15429,-1.29101 z m 6.57031,11.22851 c 0.10514,-0.10514 0.24469,0.0347 0.4043,0.4336 0.28891,0.72162 0.25269,1.58371 -0.0801,1.91601 -0.3323,0.33229 -0.56683,-0.25834 -0.52343,-1.3125 0.024,-0.58247 0.0941,-0.93197 0.19921,-1.03711 z m 69.75196,1.6211 -0.1211,0.11523 c 0.1523,-0.0329 0.31002,-0.0508 0.47461,-0.0469 0.0476,0.001 0.0958,0.005 0.14453,0.01 0.46511,0.013 0.9311,0.0281 1.39258,0.0918 0.549,0.0905 1.17685,0.23038 1.50586,0.73632 0.10186,0.15664 0.14786,0.34245 0.22266,0.51368 0.008,0.13138 0.0304,0.26299 0.0254,0.39453 -0.0192,0.48643 -0.27171,0.92707 -0.49219,1.3457 -0.23339,0.41841 -0.5088,0.80822 -0.8164,1.17578 -0.25482,0.36609 -0.49131,0.74127 -0.72852,1.11914 -0.22468,0.39165 -0.38249,0.8251 -0.66211,1.1875 -0.35104,0.45812 -0.77613,0.83555 -1.30469,1.08008 -0.003,0.001 -0.007,9.3e-4 -0.01,0.002 -0.86265,0.70862 -2.47725,1.67612 -5.03516,2.86719 -9.10037,4.23744 -17.91949,2.39429 -24.52148,-5.125 -3.09975,-3.53017 -3.22105,-3.90635 -1.49024,-4.58594 1.03713,-0.40721 8.52946,-0.77194 16.65039,-0.81054 z m -115.92188,0.008 -1.80468,3.11133 c -2.17507,3.75164 -6.59063,7.19785 -11.20313,8.74218 -7.906374,2.64721 -16.165524,0.24629 -21.996094,-6.39453 -3.089755,-3.51887 -3.215454,-3.9046 -1.490234,-4.54687 1.037105,-0.38609 9.672279,-0.74904 19.189458,-0.80664 z m 117.58008,1.58008 c -6.3e-4,-0.002 -0.002,-5.9e-4 -0.004,0.002 -0.006,0.009 -0.0166,0.0462 -0.0254,0.0996 0.003,-0.009 0.008,-0.018 0.0117,-0.0274 0.0153,-0.044 0.0195,-0.0691 0.0176,-0.0742 z m -1.69141,1.15625 c -0.003,-4.5e-4 -0.006,9.9e-4 -0.01,0.002 -0.008,0.002 -0.0162,0.006 -0.0215,0.01 -0.0162,0.0105 -0.0311,0.0237 -0.0469,0.0352 0.0174,-0.003 0.0296,-0.002 0.0488,-0.006 0.0116,-0.0116 0.0361,-0.0189 0.0352,-0.0352 -3e-4,-0.003 -0.003,-0.005 -0.006,-0.006 z m -1.18359,1.19726 c -0.0154,0.0162 -0.0482,0.0852 -0.0391,0.11328 0.001,0.003 9.3e-4,0.007 0.002,0.01 0.0216,-0.0402 0.0416,-0.0819 0.0449,-0.11719 9.3e-4,-0.01 -0.003,-0.0113 -0.008,-0.006 z m -70.66797,2.125 c 0.48197,0.001 2.35439,3.54428 3.50781,6.80274 0.66019,1.8644 0.85346,4.28686 0.4336,5.42187 -0.59241,1.60142 -1.1243,0.59705 -2.42383,-4.57617 -0.91553,-3.64472 -1.64951,-6.98295 -1.63281,-7.41992 0.006,-0.15559 0.0464,-0.22868 0.11523,-0.22852 z m 0.1211,11.08008 c 0.14619,-0.0587 0.41844,0.49486 0.95312,1.60352 0.59683,1.23725 1.67489,2.24999 2.39649,2.25 0.72135,0 1.84946,1.0125 2.50585,2.25 0.65663,1.23725 1.98283,2.80927 2.94727,3.49414 2.12792,1.51084 1.93556,3.80052 -0.46875,5.55859 -1.61498,1.18091 -1.63408,1.42407 -0.20117,2.61328 0.86946,0.72159 3.27213,1.91646 5.33984,2.6543 3.26653,1.16562 3.41921,1.34666 1.16016,1.38476 -4.59059,0.0775 -10.45892,-5.1603 -12.80469,-11.42968 -1.15244,-3.08017 -2.06454,-6.82088 -2.02734,-8.3125 0.0333,-1.33655 0.053,-2.00776 0.19922,-2.06641 z m 11.63281,1.99219 c 0.101,0.0125 0.0632,0.13433 -0.14063,0.35937 -0.40773,0.45007 -0.24147,1.42206 0.3711,2.16016 0.61277,0.73811 0.88828,1.3418 0.61328,1.3418 -0.275,0 -1.02587,-0.63633 -1.66992,-1.41211 -0.90221,-1.08709 -0.87352,-1.58282 0.12695,-2.16016 0.3571,-0.20606 0.59822,-0.30157 0.69922,-0.28906 z m -28.11914,2.39062 c -0.1931,-0.10564 -0.55418,0.52669 -1.1875,1.97071 -0.72365,1.64975 -1.08103,3.41032 -0.79492,3.9121 0.59944,1.05132 4.20854,-3.06482 4.18554,-4.77343 -0.008,-0.62657 -0.45121,-0.46367 -0.98437,0.36133 -0.80534,1.24593 -0.9791,1.16132 -1.0293,-0.5 -0.0174,-0.57761 -0.0736,-0.90732 -0.18945,-0.97071 z m -0.2461,2.86719 c 0.10159,-0.0241 0.19452,-0.001 0.27149,0.0762 0.30789,0.30789 0.002,1.11463 -0.68164,1.79297 -0.98762,0.98026 -1.10323,0.86636 -0.56055,-0.55859 0.28165,-0.73967 0.66595,-1.23812 0.9707,-1.31055 z m 5.74414,0.98242 c 0.10514,-0.10514 0.24469,0.0347 0.4043,0.4336 0.28891,0.72162 0.25269,1.58371 -0.0801,1.91601 -0.3323,0.33229 -0.56683,-0.25834 -0.52343,-1.3125 0.024,-0.58247 0.0941,-0.93197 0.19921,-1.03711 z m 16.47071,0.63672 c -1.39346,-0.0284 -0.76229,3.04302 0.74414,3.62109 0.82184,0.31537 1.24963,0.97121 0.94922,1.45703 -0.30041,0.48607 0.10693,0.6329 0.90625,0.32618 2.54138,-0.97532 0.44077,-5.3422 -2.59961,-5.4043 z m 7.44922,3.60742 c 0.45897,0.28366 0.52653,1.00977 0.15234,1.61524 -0.44194,0.71507 -0.0775,0.87109 1.03711,0.44336 0.94379,-0.36216 1.46519,-0.25258 1.1582,0.24414 -0.307,0.49673 -0.0571,1.07081 0.55664,1.27539 0.67352,0.22451 0.40187,0.95288 -0.68554,1.83593 -1.49212,1.21204 -1.65428,1.21827 -0.94532,0.043 0.6202,-1.02878 0.44697,-1.26366 -0.62695,-0.85156 -1.09562,0.42043 -1.48242,-0.17427 -1.48242,-2.27734 0,-1.56502 0.37697,-2.61179 0.83594,-2.32813 z m 10.3125,3.85156 c 0.16779,-0.0701 0.49254,-0.0282 0.9375,0.14258 0.85357,0.32755 1.55078,0.77408 1.55078,0.99024 0,0.80991 -1.90493,0.3545 -2.49219,-0.59571 -0.17517,-0.28343 -0.16605,-0.46702 0.004,-0.53711 z m 34.17773,1.19532 c 1.61124,-0.22335 3.90204,0.82203 4.66211,2.80273 0.33776,0.88019 0.0693,1.46913 -0.63281,1.39063 -3.97712,-0.44445 -5.71875,-1.15968 -5.71875,-2.34961 0,-1.11961 0.72271,-1.70974 1.68945,-1.84375 z m -40.75781,1.30273 c 1.99059,-0.22562 8.04188,2.04329 8.05859,3.27735 0.006,0.41225 -1.14137,0.74999 -2.54883,0.75 -1.45111,0 -2.29192,-0.43309 -1.9414,-1 0.33992,-0.55 -0.0839,-1 -0.94141,-1 -0.85746,-10e-6 -1.55859,-0.47614 -1.55859,-1.0586 0,-0.58246 -0.51932,-0.73814 -1.1543,-0.3457 -0.68516,0.42345 -0.88482,0.27518 -0.49023,-0.36328 0.0892,-0.1443 0.2918,-0.22754 0.57617,-0.25977 z m 13.06836,3.15625 c 0.45312,0 0.90625,0.0703 1.25,0.20899 0.6875,0.27741 0.125,0.5039 -1.25,0.5039 -1.375,0 -1.9375,-0.22649 -1.25,-0.5039 0.34375,-0.13871 0.79687,-0.20899 1.25,-0.20899 z m -67.29492,11.98633 c 0.0118,0.0469 0.0232,0.12712 0.0352,0.17578 0.01,-0.0565 0.0221,-0.11294 0.0332,-0.16992 -0.0228,-0.001 -0.0455,-0.005 -0.0683,-0.006 z m 3.78125,0.45703 c 0.003,0.0265 0.008,0.0513 0.01,0.0781 0.001,6.3e-4 0.003,9.5e-4 0.004,0.002 v -0.0781 c -0.005,-8.3e-4 -0.009,-9.5e-4 -0.0137,-0.002 z m 83.49218,6.68359 c 0.0169,0.008 0.0339,0.0156 0.0508,0.0234 5.6e-4,-0.004 -5.2e-4,-0.009 0,-0.0137 -0.017,-0.003 -0.0338,-0.007 -0.0508,-0.01 z m -0.30468,1.42774 c 0.0219,0.0169 0.0409,0.0357 0.0625,0.0527 -7.5e-4,-0.008 -2.8e-4,-0.0169 -0.002,-0.0254 -0.0189,-0.009 -0.0421,-0.0186 -0.0605,-0.0273 z m 12.15234,2.08398 c 0.006,0.0199 0.009,0.0404 0.0156,0.0606 0.0124,-0.002 0.0247,-0.004 0.0371,-0.006 -0.018,-0.0178 -0.0347,-0.0368 -0.0527,-0.0547 z m -110.50391,0.60547 c -0.007,8.3e-4 -0.0168,0.006 -0.0254,0.008 -0.001,0.005 -0.005,0.0269 -0.006,0.0332 0.0107,-0.0135 0.0207,-0.0276 0.0312,-0.041 z m 111.2793,0.2832 c -0.008,0.033 -0.004,0.0678 -0.006,0.10157 0.004,-0.0103 0.009,-0.0212 0.0137,-0.0312 0.0101,-0.0213 -0.003,-0.0931 -0.008,-0.0703 z m 0.46875,0.67774 c 0.004,0.0338 0.007,0.0677 0.01,0.10156 0.009,-6.9e-4 0.0186,-5e-5 0.0273,-0.002 -0.0105,-0.0358 -0.0259,-0.0646 -0.0371,-0.0996 z m -73.97852,0.23633 c 1.2e-4,0.006 0.004,0.0114 0.004,0.0176 0.002,-0.001 0.004,-0.003 0.006,-0.004 -0.003,-0.004 -0.006,-0.009 -0.01,-0.0137 z m 33.50391,2.66797 c -0.0323,0.0122 -0.0648,0.0232 -0.0977,0.0332 0.0298,0.005 0.06,0.01 0.0899,0.0156 0.007,0.001 0.0159,6.8e-4 0.0234,0.002 -0.004,-0.0157 -0.0113,-0.0351 -0.0156,-0.0508 z m -142.414062,8.55078 c -0.01931,0.0175 -0.0158,0.0158 0.0098,0.01 -0.0029,-0.003 -0.0069,-0.007 -0.0098,-0.01 z m 121.892582,0.41211 c -0.028,0.003 -0.056,0.007 -0.084,0.01 0.0306,0.002 0.0612,0.002 0.0918,0.004 -0.003,-0.005 -0.005,-0.009 -0.008,-0.0137 z m 36.28515,0.39648 c -0.008,-0.003 -0.005,0.002 0,0.01 0.007,-3.4e-4 0.0144,1.8e-4 0.0215,0 -0.007,-0.003 -0.0141,-0.007 -0.0215,-0.01 z m 0.42578,0.22852 c -0.004,0.021 -0.009,0.0415 -0.0117,0.0625 0.0107,-0.016 0.0221,-0.0313 0.0332,-0.0469 -0.008,-0.005 -0.0139,-0.0109 -0.0215,-0.0156 z m -39.49804,7.63086 c -0.071,0.0173 -0.13817,0.0157 -0.20899,0.0312 0.0796,-0.009 0.15615,-0.0127 0.23633,-0.0234 -0.009,-0.003 -0.018,-0.005 -0.0273,-0.008 z" />
  </g>
</svg>
